<svg width="20" height="21" viewBox="0 0 20 21" fill="none" xmlns="http://www.w3.org/2000/svg">
<path d="M17.8947 10.4997C17.8947 6.13957 14.3601 2.60498 10 2.60498V4.9734C13.0521 4.9734 15.5263 7.44761 15.5263 10.4997H17.8947Z" fill="#747474"/>
<path d="M17.8947 10.5H15.5263C15.5263 12.0261 14.9078 13.4076 13.9077 14.4077L15.5824 16.0824C17.0111 14.6538 17.8947 12.6801 17.8947 10.5Z" fill="#7A7A7A" fill-opacity="0.301961"/>
<path d="M13.9077 14.4074L15.5824 16.0821C14.1538 17.5108 12.1801 18.3945 10 18.3945C5.63985 18.3945 2.10526 14.8599 2.10526 10.4997C2.10526 6.13957 5.63985 2.60498 10 2.60498V4.9734C6.94789 4.9734 4.47368 7.44761 4.47368 10.4997C4.47368 13.5518 6.94789 16.026 10 16.026C11.5261 16.026 12.9076 15.4075 13.9077 14.4074ZM10.3632 13.7282V14.7037H9.7V13.7563C9.05559 13.7533 8.45559 13.6117 7.9 13.3315V12.051C8.08454 12.207 8.35912 12.3515 8.72378 12.4848C9.08839 12.618 9.41382 12.6945 9.7 12.7142V10.966C8.96974 10.6986 8.47138 10.4085 8.20493 10.0956C7.93849 9.7828 7.80526 9.40188 7.80526 8.95286C7.80526 8.46931 7.97843 8.05752 8.32481 7.71757C8.6712 7.37759 9.12961 7.17998 9.7 7.12472V6.27209H10.3632V7.10549C10.9977 7.13609 11.4714 7.23919 11.7842 7.41485V8.64051C11.3628 8.38195 10.8891 8.22406 10.3632 8.16682V9.97128C11.0391 10.2131 11.5239 10.4896 11.8175 10.8009C12.1111 11.1123 12.2579 11.4885 12.2579 11.9297C12.2579 12.4389 12.0943 12.8492 11.7672 13.1605C11.44 13.4718 10.972 13.6611 10.3632 13.7282ZM9.7 9.69891V8.18609C9.25789 8.26602 9.03684 8.49643 9.03684 8.87735C9.03684 9.20597 9.25789 9.47984 9.7 9.69891ZM10.3632 11.231V12.6964C10.8053 12.6254 11.0263 12.395 11.0263 12.0052C11.0263 11.6894 10.8053 11.4313 10.3632 11.231Z" fill="#747474"/>
</svg>
