<svg width="20" height="20" viewBox="0 0 20 20" fill="none" xmlns="http://www.w3.org/2000/svg">
<g clip-path="url(#clip0_349_815)">
<path d="M11.1476 2.95093L0 14.0985L5.90162 20.0001L17.0492 8.85255L16.0656 3.93455L11.1476 2.95093Z" fill="#A9ACAF"/>
<path d="M5.28491 14.7157C5.27541 14.4566 5.17014 14.2147 4.98589 14.0305C4.58689 13.6315 3.93768 13.6315 3.53868 14.0305L2.48723 15.0819L4.91807 17.5127L5.96951 16.4612C6.16299 16.2681 6.2695 16.0111 6.2695 15.7376C6.2695 15.4642 6.16292 15.2071 5.96951 15.0139C5.78003 14.8245 5.53375 14.7248 5.28491 14.7157ZM5.50593 15.9976L4.91807 16.5855L3.41447 15.0819L4.00233 14.494C4.14595 14.3511 4.37874 14.3511 4.5223 14.494C4.59184 14.5636 4.63019 14.6557 4.63019 14.754C4.63019 14.8524 4.59184 14.9445 4.5223 15.014L4.03049 15.5058L4.49407 15.9694L4.98589 15.4776C5.12951 15.3347 5.3623 15.3347 5.50586 15.4776C5.5754 15.5471 5.61375 15.6393 5.61375 15.7376C5.61375 15.836 5.5754 15.9281 5.50593 15.9976Z" fill="#747474"/>
<path d="M10.9157 6.65348L10.356 7.21318L12.7869 9.64402L13.3466 9.08431C13.6711 8.75974 13.8502 8.3279 13.8502 7.86893C13.8502 7.40996 13.6711 6.97812 13.3466 6.65355C12.6761 5.98333 11.5862 5.98334 10.9157 6.65348ZM12.883 8.62073L12.7869 8.71678L11.2833 7.21318L11.3794 7.11713C11.7938 6.70271 12.4686 6.70271 12.883 7.11713C13.0836 7.31811 13.1945 7.58498 13.1945 7.86893C13.1944 8.15288 13.0836 8.41975 12.883 8.62073Z" fill="#747474"/>
<path d="M7.34884 15.082L5.38165 13.1148L5.96951 12.5269C6.11314 12.384 6.34593 12.384 6.48949 12.5269C6.55903 12.5965 6.59738 12.6886 6.59738 12.7869C6.59738 12.8853 6.55903 12.9774 6.48949 13.0469L5.99767 13.5387L6.46126 14.0023L6.936 13.5276L8.1655 14.2652L8.64354 13.7872L7.23764 12.9436C7.24549 12.8918 7.25306 12.84 7.25306 12.7866C7.25306 12.5131 7.14648 12.2561 6.95307 12.0629C6.55407 11.6639 5.90486 11.6639 5.50586 12.0629L4.45441 13.1147L6.88525 15.5456L7.34884 15.082Z" fill="#747474"/>
<path d="M9.31609 13.1148L8.33246 12.1312L9.18031 11.2834L10.1639 12.267L10.6275 11.8034L8.19668 9.37256L6.4216 11.1476L8.85243 13.5785L9.31609 13.1148ZM7.34883 11.1476L8.19668 10.2998L8.71666 10.8198L7.86881 11.6676L7.34883 11.1476Z" fill="#747474"/>
<path d="M12.5948 9.83611L10.1639 7.40527L9.70035 7.86893L11.1334 9.30237L8.74496 8.82432L8.38885 9.18036L10.8197 11.6112L11.2833 11.1476L9.84983 9.71417L12.2387 10.1922L12.5948 9.83611Z" fill="#747474"/>
<path d="M16.5574 0C14.7144 0 13.2095 1.45671 13.1229 3.27869H13.7787C13.8643 1.81833 15.0757 0.655751 16.5574 0.655751C18.0941 0.655751 19.3442 1.90591 19.3442 3.44263C19.3442 4.97934 18.0941 6.2295 16.5574 6.2295C16.2377 6.2295 15.9299 6.1698 15.639 6.06887C15.702 5.91574 15.7377 5.74918 15.7377 5.57382C15.7377 4.85052 15.1495 4.26231 14.4262 4.26231C13.7029 4.26231 13.1147 4.85052 13.1147 5.57382C13.1147 6.29711 13.703 6.88525 14.4263 6.88525C14.7246 6.88525 14.9968 6.78128 15.2174 6.6128C15.6334 6.78824 16.0866 6.88525 16.5574 6.88525C18.4557 6.88525 20 5.34096 20 3.44263C20 1.54429 18.4558 0 16.5574 0ZM15.082 5.57375C15.082 5.64687 15.0673 5.71572 15.0453 5.78127C14.7191 5.5701 14.4387 5.2898 14.2217 4.95373C14.2863 4.93239 14.3542 4.918 14.4263 4.918C14.7879 4.91807 15.082 5.21213 15.082 5.57375ZM14.4263 6.2295C14.0646 6.2295 13.7705 5.93543 13.7705 5.57375C13.7705 5.53898 13.7754 5.50586 13.7807 5.47274C13.9921 5.76289 14.2466 6.01144 14.5305 6.21896C14.4964 6.22461 14.462 6.2295 14.4263 6.2295Z" fill="#747474"/>
</g>
<defs>
<clipPath id="clip0_349_815">
<rect width="20" height="20" fill="white"/>
</clipPath>
</defs>
</svg>
