<svg width="21" height="20" viewBox="0 0 21 20" fill="none" xmlns="http://www.w3.org/2000/svg">
<path fill-rule="evenodd" clip-rule="evenodd" d="M4.82769 5.34749L5.43069 12.5195C5.47469 13.0715 5.92568 13.4855 6.47669 13.4855H6.48069H17.3917H17.3937C17.9147 13.4855 18.3597 13.0975 18.4337 12.5825L19.3837 6.02349C19.4057 5.86749 19.3667 5.71149 19.2717 5.58549C19.1777 5.45849 19.0397 5.37649 18.8837 5.35449C18.6747 5.36249 10.0017 5.35049 4.82769 5.34749ZM6.47469 14.9855C5.15769 14.9855 4.04269 13.9575 3.93569 12.6425L3.01969 1.74849L1.51269 1.48849C1.10369 1.41649 0.830685 1.02949 0.900685 0.620487C0.972685 0.211487 1.36769 -0.054513 1.76769 0.00948704L3.84769 0.369487C4.18269 0.428487 4.43769 0.706487 4.46669 1.04649L4.70168 3.84749C18.9777 3.85349 19.0237 3.86049 19.0927 3.86849C19.6497 3.94949 20.1397 4.24049 20.4737 4.68849C20.8077 5.13549 20.9477 5.68649 20.8677 6.23849L19.9187 12.7965C19.7397 14.0445 18.6557 14.9855 17.3957 14.9855H17.3907H6.48269H6.47469Z" fill="#747474"/>
<path fill-rule="evenodd" clip-rule="evenodd" d="M15.7876 9.0437H13.0156C12.6006 9.0437 12.2656 8.7077 12.2656 8.2937C12.2656 7.8797 12.6006 7.5437 13.0156 7.5437H15.7876C16.2016 7.5437 16.5376 7.8797 16.5376 8.2937C16.5376 8.7077 16.2016 9.0437 15.7876 9.0437Z" fill="#747474"/>
<path fill-rule="evenodd" clip-rule="evenodd" d="M6.04448 17.7019C6.34548 17.7019 6.58848 17.9449 6.58848 18.2459C6.58848 18.5469 6.34548 18.7909 6.04448 18.7909C5.74248 18.7909 5.49948 18.5469 5.49948 18.2459C5.49948 17.9449 5.74248 17.7019 6.04448 17.7019Z" fill="#747474"/>
<mask id="mask0_175_563" style="mask-type:alpha" maskUnits="userSpaceOnUse" x="5" y="17" width="2" height="2">
<path fill-rule="evenodd" clip-rule="evenodd" d="M5.49899 18.2457C5.49899 18.5477 5.74199 18.7917 6.04499 18.7917C6.34599 18.7917 6.58899 18.5477 6.58899 18.2457C6.58899 17.9447 6.34599 17.7017 6.04499 17.7017C5.74199 17.7017 5.49899 17.9447 5.49899 18.2457Z" fill="white"/>
</mask>
<g mask="url(#mask0_175_563)">
<path fill-rule="evenodd" clip-rule="evenodd" d="M0.5 23.7907H11.589V12.7017H0.5V23.7907Z" fill="#747474"/>
</g>
<path fill-rule="evenodd" clip-rule="evenodd" d="M6.04348 18.0409C5.93048 18.0409 5.83848 18.1329 5.83848 18.2459C5.83848 18.4729 6.24948 18.4729 6.24948 18.2459C6.24948 18.1329 6.15648 18.0409 6.04348 18.0409ZM6.04348 19.5409C5.32948 19.5409 4.74948 18.9599 4.74948 18.2459C4.74948 17.5319 5.32948 16.9519 6.04348 16.9519C6.75748 16.9519 7.33848 17.5319 7.33848 18.2459C7.33848 18.9599 6.75748 19.5409 6.04348 19.5409Z" fill="#747474"/>
<path fill-rule="evenodd" clip-rule="evenodd" d="M17.3248 17.7019C17.6258 17.7019 17.8698 17.9449 17.8698 18.2459C17.8698 18.5469 17.6258 18.7909 17.3248 18.7909C17.0228 18.7909 16.7798 18.5469 16.7798 18.2459C16.7798 17.9449 17.0228 17.7019 17.3248 17.7019Z" fill="#747474"/>
<mask id="mask1_175_563" style="mask-type:alpha" maskUnits="userSpaceOnUse" x="16" y="17" width="2" height="2">
<path fill-rule="evenodd" clip-rule="evenodd" d="M16.78 18.2457C16.78 18.5477 17.023 18.7917 17.325 18.7917C17.625 18.7917 17.87 18.5477 17.87 18.2457C17.87 17.9447 17.625 17.7017 17.325 17.7017C17.023 17.7017 16.78 17.9447 16.78 18.2457Z" fill="white"/>
</mask>
<g mask="url(#mask1_175_563)">
<path fill-rule="evenodd" clip-rule="evenodd" d="M11.78 23.7907H22.87V12.7017H11.78V23.7907Z" fill="#747474"/>
</g>
<path fill-rule="evenodd" clip-rule="evenodd" d="M17.3238 18.0409C17.2118 18.0409 17.1198 18.1329 17.1198 18.2459C17.1208 18.4749 17.5308 18.4729 17.5298 18.2459C17.5298 18.1329 17.4368 18.0409 17.3238 18.0409ZM17.3238 19.5409C16.6098 19.5409 16.0298 18.9599 16.0298 18.2459C16.0298 17.5319 16.6098 16.9519 17.3238 16.9519C18.0388 16.9519 18.6198 17.5319 18.6198 18.2459C18.6198 18.9599 18.0388 19.5409 17.3238 19.5409Z" fill="#747474"/>
</svg>
