<svg width="17" height="19" viewBox="0 0 17 19" fill="none" xmlns="http://www.w3.org/2000/svg">
<path fill-rule="evenodd" clip-rule="evenodd" d="M16.222 8.25342H1.36865C1.02365 8.25342 0.743652 7.97342 0.743652 7.62842C0.743652 7.28342 1.02365 7.00342 1.36865 7.00342H16.222C16.567 7.00342 16.847 7.28342 16.847 7.62842C16.847 7.97342 16.567 8.25342 16.222 8.25342Z" fill="#747474"/>
<path fill-rule="evenodd" clip-rule="evenodd" d="M12.501 11.5078C12.156 11.5078 11.8727 11.2278 11.8727 10.8828C11.8727 10.5378 12.1485 10.2578 12.4935 10.2578H12.501C12.846 10.2578 13.126 10.5378 13.126 10.8828C13.126 11.2278 12.846 11.5078 12.501 11.5078Z" fill="#747474"/>
<path fill-rule="evenodd" clip-rule="evenodd" d="M8.80302 11.5078C8.45802 11.5078 8.17468 11.2278 8.17468 10.8828C8.17468 10.5378 8.45052 10.2578 8.79552 10.2578H8.80302C9.14802 10.2578 9.42802 10.5378 9.42802 10.8828C9.42802 11.2278 9.14802 11.5078 8.80302 11.5078Z" fill="#747474"/>
<path fill-rule="evenodd" clip-rule="evenodd" d="M5.09743 11.5078C4.75243 11.5078 4.46826 11.2278 4.46826 10.8828C4.46826 10.5378 4.74493 10.2578 5.08993 10.2578H5.09743C5.44243 10.2578 5.72243 10.5378 5.72243 10.8828C5.72243 11.2278 5.44243 11.5078 5.09743 11.5078Z" fill="#747474"/>
<path fill-rule="evenodd" clip-rule="evenodd" d="M12.501 14.7468C12.156 14.7468 11.8727 14.4668 11.8727 14.1218C11.8727 13.7768 12.1485 13.4968 12.4935 13.4968H12.501C12.846 13.4968 13.126 13.7768 13.126 14.1218C13.126 14.4668 12.846 14.7468 12.501 14.7468Z" fill="#747474"/>
<path fill-rule="evenodd" clip-rule="evenodd" d="M8.80302 14.7468C8.45802 14.7468 8.17468 14.4668 8.17468 14.1218C8.17468 13.7768 8.45052 13.4968 8.79552 13.4968H8.80302C9.14802 13.4968 9.42802 13.7768 9.42802 14.1218C9.42802 14.4668 9.14802 14.7468 8.80302 14.7468Z" fill="#747474"/>
<path fill-rule="evenodd" clip-rule="evenodd" d="M5.09743 14.7468C4.75243 14.7468 4.46826 14.4668 4.46826 14.1218C4.46826 13.7768 4.74493 13.4968 5.08993 13.4968H5.09743C5.44243 13.4968 5.72243 13.7768 5.72243 14.1218C5.72243 14.4668 5.44243 14.7468 5.09743 14.7468Z" fill="#747474"/>
<path fill-rule="evenodd" clip-rule="evenodd" d="M12.1613 4.82575C11.8163 4.82575 11.5363 4.54575 11.5363 4.20075V1.45825C11.5363 1.11325 11.8163 0.833252 12.1613 0.833252C12.5063 0.833252 12.7863 1.11325 12.7863 1.45825V4.20075C12.7863 4.54575 12.5063 4.82575 12.1613 4.82575Z" fill="#747474"/>
<path fill-rule="evenodd" clip-rule="evenodd" d="M5.42932 4.82575C5.08432 4.82575 4.80432 4.54575 4.80432 4.20075V1.45825C4.80432 1.11325 5.08432 0.833252 5.42932 0.833252C5.77432 0.833252 6.05432 1.11325 6.05432 1.45825V4.20075C6.05432 4.54575 5.77432 4.82575 5.42932 4.82575Z" fill="#747474"/>
<mask id="mask0_569_377" style="mask-type:alpha" maskUnits="userSpaceOnUse" x="0" y="2" width="17" height="17">
<path fill-rule="evenodd" clip-rule="evenodd" d="M0.666626 2.14917H16.9166V18.7499H0.666626V2.14917Z" fill="white"/>
</mask>
<g mask="url(#mask0_569_377)">
<path fill-rule="evenodd" clip-rule="evenodd" d="M5.26746 3.39917C3.10663 3.39917 1.91663 4.55167 1.91663 6.64417V14.185C1.91663 16.3233 3.10663 17.5 5.26746 17.5H12.3158C14.4766 17.5 15.6666 16.345 15.6666 14.2483V6.64417C15.67 5.615 15.3933 4.815 14.8441 4.265C14.2791 3.69834 13.4083 3.39917 12.3233 3.39917H5.26746ZM12.3158 18.75H5.26746C2.42996 18.75 0.666626 17.0008 0.666626 14.185V6.64417C0.666626 3.87084 2.42996 2.14917 5.26746 2.14917H12.3233C13.7475 2.14917 14.925 2.57584 15.7291 3.38167C16.51 4.16584 16.9208 5.29334 16.9166 6.64584V14.2483C16.9166 17.025 15.1533 18.75 12.3158 18.75Z" fill="#747474"/>
</g>
</svg>
