<svg width="20" height="21" viewBox="0 0 20 21" fill="none" xmlns="http://www.w3.org/2000/svg">
<g clip-path="url(#clip0_349_805)">
<path d="M0.170737 8.14685L5.7473 11.4182C5.80082 11.4499 5.86125 11.4661 5.9222 11.4661C5.95562 11.4661 5.98891 11.4611 6.02143 11.4516L19.7535 7.33241C19.8906 7.29118 19.9881 7.1707 19.9989 7.0282C20.01 6.88608 19.9331 6.75157 19.8045 6.6898L14.2281 4.00826C14.1544 3.97299 14.0714 3.96473 13.9918 3.98496L0.259658 7.5139C0.123812 7.54886 0.0228548 7.6623 0.00345729 7.80083C-0.0162603 7.93943 0.0500626 8.07598 0.170737 8.14685ZM14.0417 4.68622L18.7008 6.92634L5.96708 10.7461L1.24375 7.97471L14.0417 4.68622Z" fill="#747474"/>
<path d="M0.170736 9.5297L5.87732 12.8776L19.7535 8.71519C19.9365 8.66033 20.0402 8.46776 19.9855 8.28473C19.9311 8.10196 19.738 7.9971 19.5554 8.0528L5.96707 12.1288L0.52066 8.93337C0.355749 8.83663 0.143721 8.89201 0.0476933 9.05641C-0.0487182 9.22132 0.00614542 9.43335 0.170736 9.5297Z" fill="#747474"/>
<path d="M0.170736 10.9124L5.87732 14.2604L19.7535 10.098C19.9365 10.0431 20.0402 9.85051 19.9855 9.66755C19.9311 9.48471 19.738 9.37992 19.5554 9.43561L5.96707 13.5116L0.52066 10.3163C0.355749 10.2194 0.143721 10.2748 0.0476933 10.4392C-0.0487182 10.6043 0.00614542 10.8163 0.170736 10.9124Z" fill="#747474"/>
<path d="M0.170736 12.2953L5.87732 15.6433L19.7535 11.4811C19.9365 11.426 20.0402 11.2336 19.9855 11.0506C19.9311 10.8677 19.738 10.763 19.5554 10.8187L5.96707 14.8945L0.52066 11.6992C0.355749 11.6019 0.143721 11.6577 0.0476933 11.8221C-0.0487182 11.9871 0.00614542 12.1991 0.170736 12.2953Z" fill="#747474"/>
<path d="M0.170736 13.6782L5.87732 17.0262L19.7535 12.8639C19.9365 12.8089 20.0402 12.6165 19.9855 12.4334C19.9311 12.2505 19.738 12.1458 19.5554 12.2015L5.96707 16.2773L0.52066 13.0819C0.355749 12.9847 0.143721 13.0405 0.0476933 13.2048C-0.0487182 13.3699 0.00614542 13.582 0.170736 13.6782Z" fill="#747474"/>
<path d="M11.5563 6.3422L13.8611 7.66725C13.9151 7.6983 13.9745 7.71315 14.0329 7.71315C14.1532 7.71315 14.2692 7.65086 14.333 7.53998C14.4282 7.37437 14.3712 7.16323 14.2055 7.06804L11.9007 5.74299C11.736 5.6476 11.5239 5.70464 11.4287 5.87026C11.3339 6.03581 11.3906 6.247 11.5563 6.3422Z" fill="#747474"/>
<path d="M9.13643 7.03361L11.4412 8.35866C11.4952 8.3897 11.5546 8.40456 11.613 8.40456C11.7333 8.40456 11.8493 8.34227 11.9132 8.23139C12.0083 8.06584 11.9513 7.85464 11.7856 7.75944L9.48078 6.4344C9.31516 6.33901 9.10435 6.39605 9.00877 6.56166C8.91345 6.7269 8.97055 6.93835 9.13643 7.03361Z" fill="#747474"/>
</g>
<defs>
<clipPath id="clip0_349_805">
<rect width="20.0001" height="20" fill="white" transform="translate(0 0.5)"/>
</clipPath>
</defs>
</svg>
