<svg width="24" height="24" viewBox="0 0 24 24" fill="none" xmlns="http://www.w3.org/2000/svg">
<path d="M3 6H5H21" stroke="#181725" stroke-width="2" stroke-linecap="round" stroke-linejoin="round"/>
<path d="M8.00037 6.00049V4.00049C8.00037 3.47006 8.21108 2.96135 8.58615 2.58627C8.96123 2.2112 9.46993 2.00049 10.0004 2.00049H14.0004C14.5308 2.00049 15.0395 2.2112 15.4146 2.58627C15.7897 2.96135 16.0004 3.47006 16.0004 4.00049V6.00049M19.0004 6.00049V20.0005C19.0004 20.5309 18.7897 21.0396 18.4146 21.4147C18.0395 21.7898 17.5308 22.0005 17.0004 22.0005H7.00037C6.46993 22.0005 5.96123 21.7898 5.58615 21.4147C5.21108 21.0396 5.00037 20.5309 5.00037 20.0005V6.00049H19.0004Z" stroke="#181725" stroke-width="2" stroke-linecap="round" stroke-linejoin="round"/>
<path d="M9.99963 11.0005V17.0005" stroke="#181725" stroke-width="2" stroke-linecap="round" stroke-linejoin="round"/>
<path d="M14.0004 11.0005V17.0005" stroke="#181725" stroke-width="2" stroke-linecap="round" stroke-linejoin="round"/>
</svg>
