<svg width="65" height="24" viewBox="0 0 65 24" fill="none" xmlns="http://www.w3.org/2000/svg">
<g clip-path="url(#clip0_195_1042)">
<path d="M9.5 6.5V9.5H6.5V6.5H9.5ZM11 5H5V11H11V5ZM9.5 14.5V17.5H6.5V14.5H9.5ZM11 13H5V19H11V13ZM17.5 6.5V9.5H14.5V6.5H17.5ZM19 5H13V11H19V5ZM13 13H14.5V14.5H13V13ZM14.5 14.5H16V16H14.5V14.5ZM16 13H17.5V14.5H16V13ZM13 16H14.5V17.5H13V16ZM14.5 17.5H16V19H14.5V17.5ZM16 16H17.5V17.5H16V16ZM17.5 14.5H19V16H17.5V14.5ZM17.5 17.5H19V19H17.5V17.5ZM21 7C20.45 7 20 6.55 20 6V4H18C17.45 4 17 3.55 17 3C17 2.45 17.45 2 18 2H21C21.55 2 22 2.45 22 3V6C22 6.55 21.55 7 21 7ZM22 21V18C22 17.45 21.55 17 21 17C20.45 17 20 17.45 20 18V20H18C17.45 20 17 20.45 17 21C17 21.55 17.45 22 18 22H21C21.55 22 22 21.55 22 21ZM3 22H6C6.55 22 7 21.55 7 21C7 20.45 6.55 20 6 20H4V18C4 17.45 3.55 17 3 17C2.45 17 2 17.45 2 18V21C2 21.55 2.45 22 3 22ZM2 3V6C2 6.55 2.45 7 3 7C3.55 7 4 6.55 4 6V4H6C6.55 4 7 3.55 7 3C7 2.45 6.55 2 6 2H3C2.45 2 2 2.45 2 3Z" fill="#3360BB"/>
</g>
<path d="M36.354 16.64C35.5887 16.64 34.9213 16.5187 34.352 16.276C33.792 16.0333 33.3627 15.716 33.064 15.324C32.7747 14.9227 32.6207 14.4933 32.602 14.036C32.602 13.9613 32.63 13.896 32.686 13.84C32.742 13.784 32.812 13.756 32.896 13.756H33.582C33.75 13.756 33.8667 13.8493 33.932 14.036C34.016 14.428 34.254 14.7687 34.646 15.058C35.0473 15.338 35.6167 15.478 36.354 15.478C37.1473 15.478 37.74 15.338 38.132 15.058C38.524 14.778 38.72 14.3907 38.72 13.896C38.72 13.5787 38.622 13.3173 38.426 13.112C38.2393 12.9067 37.9547 12.7293 37.572 12.58C37.1987 12.4213 36.634 12.23 35.878 12.006C35.1593 11.8007 34.5853 11.5813 34.156 11.348C33.736 11.1147 33.4187 10.83 33.204 10.494C32.9893 10.1487 32.882 9.71467 32.882 9.192C32.882 8.688 33.0173 8.24 33.288 7.848C33.5587 7.44667 33.9507 7.134 34.464 6.91C34.9773 6.67667 35.584 6.56 36.284 6.56C37.012 6.56 37.6327 6.69067 38.146 6.952C38.6687 7.204 39.0653 7.526 39.336 7.918C39.6067 8.30067 39.7513 8.688 39.77 9.08C39.77 9.164 39.742 9.234 39.686 9.29C39.63 9.346 39.56 9.374 39.476 9.374H38.776C38.7013 9.374 38.6313 9.35067 38.566 9.304C38.5007 9.25733 38.454 9.18733 38.426 9.094C38.37 8.69267 38.146 8.36133 37.754 8.1C37.362 7.83867 36.872 7.708 36.284 7.708C35.6493 7.708 35.1453 7.834 34.772 8.086C34.3987 8.32867 34.212 8.69267 34.212 9.178C34.212 9.50467 34.296 9.77067 34.464 9.976C34.6413 10.1813 34.9073 10.3633 35.262 10.522C35.626 10.6807 36.1533 10.8627 36.844 11.068C37.6373 11.292 38.258 11.516 38.706 11.74C39.1633 11.964 39.504 12.244 39.728 12.58C39.952 12.9067 40.064 13.3313 40.064 13.854C40.064 14.7313 39.728 15.4173 39.056 15.912C38.3933 16.3973 37.4927 16.64 36.354 16.64ZM44.6436 16.64C43.645 16.64 42.8656 16.36 42.3056 15.8C41.7456 15.2307 41.4516 14.4373 41.4236 13.42L41.4096 12.86L41.4236 12.3C41.4516 11.2827 41.7456 10.494 42.3056 9.934C42.8656 9.36467 43.645 9.08 44.6436 9.08C45.3156 9.08 45.8803 9.20133 46.3376 9.444C46.8043 9.67733 47.1496 9.97133 47.3736 10.326C47.607 10.6807 47.733 11.0353 47.7516 11.39C47.761 11.474 47.7283 11.5487 47.6536 11.614C47.5883 11.6793 47.5136 11.712 47.4296 11.712H46.8136C46.7203 11.712 46.6503 11.6933 46.6036 11.656C46.557 11.6093 46.5103 11.53 46.4636 11.418C46.2956 10.9607 46.0623 10.6387 45.7636 10.452C45.4743 10.256 45.1056 10.158 44.6576 10.158C44.0696 10.158 43.603 10.34 43.2576 10.704C42.9123 11.068 42.7256 11.6233 42.6976 12.37L42.6836 12.86L42.6976 13.35C42.7256 14.0967 42.9123 14.652 43.2576 15.016C43.603 15.38 44.0696 15.562 44.6576 15.562C45.115 15.562 45.4883 15.4687 45.7776 15.282C46.067 15.086 46.2956 14.7593 46.4636 14.302C46.5103 14.19 46.557 14.1153 46.6036 14.078C46.6503 14.0313 46.7203 14.008 46.8136 14.008H47.4296C47.5136 14.008 47.5883 14.0407 47.6536 14.106C47.7283 14.1713 47.761 14.246 47.7516 14.33C47.733 14.6753 47.607 15.0253 47.3736 15.38C47.1496 15.7347 46.8043 16.0333 46.3376 16.276C45.8803 16.5187 45.3156 16.64 44.6436 16.64ZM51.4449 16.64C50.9876 16.64 50.5629 16.5467 50.1709 16.36C49.7882 16.1733 49.4802 15.9213 49.2469 15.604C49.0229 15.2773 48.9109 14.918 48.9109 14.526C48.9109 13.91 49.1629 13.406 49.6669 13.014C50.1709 12.622 50.8569 12.3607 51.7249 12.23L53.8249 11.936V11.53C53.8249 10.5687 53.2696 10.088 52.1589 10.088C51.7296 10.088 51.3842 10.1767 51.1229 10.354C50.8616 10.522 50.6702 10.7227 50.5489 10.956C50.5116 11.0493 50.4696 11.1147 50.4229 11.152C50.3856 11.18 50.3296 11.194 50.2549 11.194H49.7089C49.6249 11.194 49.5502 11.166 49.4849 11.11C49.4289 11.0447 49.4009 10.97 49.4009 10.886C49.4009 10.6713 49.4989 10.424 49.6949 10.144C49.9002 9.85467 50.2129 9.60733 50.6329 9.402C51.0529 9.18733 51.5662 9.08 52.1729 9.08C53.2182 9.08 53.9649 9.32267 54.4129 9.808C54.8702 10.2933 55.0989 10.9 55.0989 11.628V16.178C55.0989 16.2713 55.0662 16.3507 55.0009 16.416C54.9449 16.472 54.8702 16.5 54.7769 16.5H54.1609C54.0676 16.5 53.9929 16.472 53.9369 16.416C53.8809 16.3507 53.8529 16.2713 53.8529 16.178V15.562C53.6476 15.87 53.3489 16.1267 52.9569 16.332C52.5649 16.5373 52.0609 16.64 51.4449 16.64ZM51.7249 15.618C52.3409 15.618 52.8449 15.4173 53.2369 15.016C53.6289 14.6147 53.8249 14.0313 53.8249 13.266V12.874L52.1869 13.112C51.5149 13.2053 51.0062 13.364 50.6609 13.588C50.3156 13.812 50.1429 14.092 50.1429 14.428C50.1429 14.8107 50.2969 15.1047 50.6049 15.31C50.9222 15.5153 51.2956 15.618 51.7249 15.618ZM57.4482 16.5C57.3548 16.5 57.2755 16.472 57.2102 16.416C57.1542 16.3507 57.1262 16.2713 57.1262 16.178V9.542C57.1262 9.44867 57.1542 9.374 57.2102 9.318C57.2755 9.25267 57.3548 9.22 57.4482 9.22H58.0502C58.1528 9.22 58.2322 9.248 58.2882 9.304C58.3442 9.36 58.3722 9.43933 58.3722 9.542V10.158C58.6522 9.81267 58.9742 9.54667 59.3382 9.36C59.7115 9.17333 60.1735 9.08 60.7242 9.08C61.6202 9.08 62.3155 9.36933 62.8102 9.948C63.3048 10.5173 63.5522 11.2733 63.5522 12.216V16.178C63.5522 16.2713 63.5195 16.3507 63.4542 16.416C63.3982 16.472 63.3235 16.5 63.2302 16.5H62.5862C62.4928 16.5 62.4135 16.472 62.3482 16.416C62.2922 16.3507 62.2642 16.2713 62.2642 16.178V12.3C62.2642 11.628 62.1008 11.1053 61.7742 10.732C61.4475 10.3587 60.9808 10.172 60.3742 10.172C59.7768 10.172 59.3008 10.3633 58.9462 10.746C58.5915 11.1193 58.4142 11.6373 58.4142 12.3V16.178C58.4142 16.2713 58.3815 16.3507 58.3162 16.416C58.2602 16.472 58.1855 16.5 58.0922 16.5H57.4482Z" fill="#3360BB"/>
<defs>
<clipPath id="clip0_195_1042">
<rect width="24" height="24" fill="white"/>
</clipPath>
</defs>
</svg>
