<svg width="25" height="24" viewBox="0 0 25 24" fill="none" xmlns="http://www.w3.org/2000/svg">
<g id="Iconly/Light/Setting">
<g id="Setting">
<path id="Path_33946" fill-rule="evenodd" clip-rule="evenodd" d="M21.3066 7.62361L20.6842 6.54352C20.1576 5.6296 18.9907 5.31432 18.0755 5.83872V5.83872C17.6399 6.09534 17.1201 6.16815 16.6307 6.04109C16.1413 5.91402 15.7226 5.59752 15.4668 5.16137C15.3023 4.88415 15.2139 4.56839 15.2105 4.24604V4.24604C15.2254 3.72922 15.0304 3.2284 14.67 2.85767C14.3096 2.48694 13.8145 2.27786 13.2975 2.27808H12.0435C11.537 2.27807 11.0513 2.47991 10.694 2.83895C10.3367 3.19798 10.1372 3.68459 10.1396 4.19112V4.19112C10.1246 5.23693 9.27246 6.07681 8.22655 6.0767C7.9042 6.07336 7.58844 5.98494 7.31122 5.82041V5.82041C6.39605 5.29601 5.2291 5.61129 4.70252 6.52522L4.03433 7.62361C3.50839 8.53639 3.81938 9.70261 4.72998 10.2323V10.2323C5.32189 10.574 5.68652 11.2056 5.68652 11.8891C5.68652 12.5725 5.32189 13.2041 4.72998 13.5458V13.5458C3.82054 14.0719 3.50921 15.2353 4.03433 16.1454V16.1454L4.66591 17.2346C4.91263 17.6798 5.32659 18.0083 5.81618 18.1474C6.30577 18.2866 6.83062 18.2249 7.27461 17.976V17.976C7.71106 17.7213 8.23117 17.6516 8.71932 17.7822C9.20748 17.9128 9.62322 18.233 9.87415 18.6717C10.0387 18.9489 10.1271 19.2646 10.1304 19.587V19.587C10.1304 20.6435 10.9869 21.5 12.0435 21.5H13.2975C14.3505 21.5001 15.2055 20.6491 15.2105 19.5962V19.5962C15.2081 19.088 15.4089 18.6 15.7681 18.2407C16.1274 17.8814 16.6155 17.6807 17.1236 17.6831C17.4452 17.6917 17.7596 17.7798 18.0389 17.9394V17.9394C18.9517 18.4653 20.1179 18.1544 20.6476 17.2438V17.2438L21.3066 16.1454C21.5617 15.7075 21.6318 15.186 21.5012 14.6964C21.3706 14.2067 21.0502 13.7894 20.611 13.5367V13.5367C20.1717 13.284 19.8514 12.8666 19.7208 12.3769C19.5902 11.8873 19.6602 11.3658 19.9153 10.928C20.0812 10.6383 20.3214 10.3982 20.611 10.2323V10.2323C21.5161 9.70289 21.8264 8.54349 21.3066 7.63277V7.63277V7.62361Z" stroke="#747474" stroke-width="1.5" stroke-linecap="round" stroke-linejoin="round"/>
<circle id="Ellipse_737" cx="12.6751" cy="11.8891" r="2.63616" stroke="#747474" stroke-width="1.5" stroke-linecap="round" stroke-linejoin="round"/>
</g>
</g>
</svg>
