<svg width="20" height="20" viewBox="0 0 20 20" fill="none" xmlns="http://www.w3.org/2000/svg">
<g clip-path="url(#clip0_70_492)">
<path d="M13.5443 0.525879L3.99683 19.439H6.53997L16.0143 0.525879H13.5443Z" fill="#747474"/>
<path d="M16.0387 10.0002C14.8156 10.0002 13.8525 10.3884 13.1468 11.1621C12.4425 11.9359 12.09 13.1265 12.09 14.7309C12.09 16.3452 12.4431 17.5396 13.1468 18.3133C13.8525 19.0871 14.8281 19.474 16.0756 19.474C17.2812 19.474 18.2375 19.0871 18.9418 18.3133C19.6468 17.5402 20 16.3452 20 14.7309C20 13.1265 19.6468 11.9359 18.9418 11.1621C18.2375 10.3884 17.2687 10.0002 16.0387 10.0002ZM16.8575 17.0671C16.6625 17.3602 16.3806 17.5071 16.0144 17.5071C15.6563 17.5071 15.3744 17.3558 15.1712 17.0546C14.9012 16.6621 14.7681 15.8846 14.7681 14.7196C14.7681 13.5533 14.9019 12.7715 15.1712 12.3709C15.3663 12.0777 15.6481 11.9309 16.0144 11.9309C16.3806 11.9309 16.6656 12.0777 16.87 12.3709C17.1319 12.7715 17.2613 13.5533 17.2613 14.7196C17.2606 15.8852 17.1268 16.6671 16.8575 17.0671Z" fill="#747474"/>
<path d="M7.90874 5.25722C7.90874 3.64412 7.55559 2.45224 6.85188 1.68286C6.14625 0.911591 5.17061 0.526611 3.92314 0.526611C2.71751 0.526611 1.76127 0.914734 1.0569 1.68849C0.351224 2.46159 0 3.65224 0 5.25722C0 6.87159 0.351224 8.06347 1.05686 8.83286C1.76122 9.60412 2.73812 9.98788 3.98437 9.98788C5.19122 9.98788 6.14625 9.60098 6.85188 8.82726C7.55625 8.05347 7.90874 6.86347 7.90874 5.25722ZM4.78 7.58098C4.57563 7.87412 4.29127 8.02098 3.92314 8.02098C3.56502 8.02098 3.28441 7.87412 3.08004 7.58098C2.81192 7.18159 2.6769 6.39849 2.6769 5.23412C2.6769 4.06788 2.81192 3.286 3.08004 2.88539C3.28441 2.59224 3.56502 2.44539 3.92314 2.44539C4.29065 2.44539 4.57563 2.59665 4.78 2.89788C5.04 3.29037 5.17127 4.06788 5.17127 5.23412C5.17122 6.39849 5.04 7.18224 4.78 7.58098Z" fill="#747474"/>
</g>
<defs>
<clipPath id="clip0_70_492">
<rect width="20" height="20" fill="white"/>
</clipPath>
</defs>
</svg>
