<svg width="20" height="20" viewBox="0 0 20 20" fill="none" xmlns="http://www.w3.org/2000/svg">
<path d="M17.3526 11.4544C17.1495 11.0938 16.766 10.8699 16.3516 10.8699C16.156 10.8699 15.9616 10.921 15.7898 11.0178L12.4454 12.9012C12.4017 12.9258 12.3702 12.9674 12.3583 13.016C12.2999 13.2541 12.1626 13.5866 11.84 13.8181C11.483 14.0743 10.9999 14.1277 10.4114 13.9768C10.4078 13.9759 10.4043 13.9749 10.4012 13.9739L8.47195 13.3749C8.35529 13.3387 8.28987 13.2143 8.32608 13.0976C8.35509 13.0044 8.44008 12.9417 8.53761 12.9417C8.55976 12.9417 8.58196 12.9451 8.60343 12.9517L10.5227 13.5476C10.5257 13.5486 10.5289 13.5495 10.532 13.5503C10.9846 13.6645 11.3381 13.6327 11.5816 13.4581C11.8893 13.2373 11.9434 12.8493 11.9498 12.7923C11.9501 12.7905 11.9503 12.7887 11.9504 12.7868C11.9505 12.7859 11.9506 12.7854 11.9506 12.7853C11.9506 12.7847 11.9507 12.784 11.9507 12.7835C11.9508 12.7831 11.9508 12.7827 11.9508 12.7823C11.9874 12.3038 11.6787 11.862 11.2161 11.7314L11.2076 11.7288C11.1935 11.7242 9.77367 11.2605 8.86905 11.0024C8.76855 10.9737 8.4916 10.9071 8.09108 10.9071C7.53091 10.9071 6.69526 11.0398 5.89372 11.6734L2.56729 14.3642C2.49119 14.4257 2.4777 14.5365 2.53675 14.6145L4.33785 16.9936C4.36706 17.0321 4.4104 17.0574 4.4583 17.0638C4.46631 17.0649 4.47433 17.0655 4.48239 17.0655C4.52215 17.0655 4.5611 17.0524 4.59296 17.0278L6.9129 15.2415C6.96503 15.2014 7.03492 15.1863 7.09896 15.2014L10.846 16.0869C11.1239 16.1525 11.4242 16.1102 11.6727 15.9701L16.9159 13.0172C17.4671 12.7067 17.663 12.0057 17.3526 11.4544Z" fill="#747474"/>
<path d="M15.2687 3.12524H8.42075C8.19831 3.12524 8.01793 3.30559 8.01793 3.52807V5.36107C8.01793 5.58355 8.19831 5.7639 8.42075 5.7639H8.5712V9.65609C8.5712 9.87857 8.75155 10.0589 8.97403 10.0589H14.7153C14.9378 10.0589 15.1181 9.87857 15.1181 9.65609V5.76386H15.2687C15.4911 5.76386 15.6715 5.58351 15.6715 5.36103V3.52807C15.6716 3.30559 15.4912 3.12524 15.2687 3.12524ZM12.6921 6.72092H10.9973C10.8196 6.72092 10.6751 6.57635 10.6751 6.39866C10.6751 6.22098 10.8196 6.07641 10.9973 6.07641H12.6921C12.8698 6.07641 13.0143 6.22098 13.0143 6.39866C13.0143 6.57635 12.8698 6.72092 12.6921 6.72092ZM14.8659 4.95821H14.7153H8.97403H8.82357V3.93089H14.8659V4.95821Z" fill="#747474"/>
</svg>
