<svg width="16" height="16" viewBox="0 0 16 16" fill="none" xmlns="http://www.w3.org/2000/svg">
<g clip-path="url(#clip0_111_480)">
<path d="M12.8004 8.77467C11.9185 8.77467 11.201 8.05713 11.201 7.17519C11.201 6.2932 11.9185 5.57571 12.8004 5.57571C13.6824 5.57571 14.3999 6.29326 14.3999 7.17519C14.3999 7.61704 14.7581 7.97525 15.2 7.97525C15.6418 7.97525 16 7.61704 16 7.17519C16 5.4109 14.5647 3.97559 12.8004 3.97559C11.0361 3.97559 9.60083 5.4109 9.60083 7.17519C9.60083 8.93949 11.0361 10.3748 12.8004 10.3748C13.6824 10.3748 14.3999 11.0923 14.3999 11.9743C14.3999 12.8563 13.6824 13.5738 12.8004 13.5738C11.9185 13.5738 11.201 12.8563 11.201 11.9743C11.201 11.5324 10.8427 11.1742 10.4009 11.1742C9.95904 11.1742 9.60083 11.5324 9.60083 11.9743C9.60083 13.7386 11.0361 15.1739 12.8004 15.1739C14.5647 15.1739 16 13.7385 16 11.9743C16.0001 10.21 14.5647 8.77467 12.8004 8.77467Z" fill="#747474"/>
<path d="M8.02205 4.8372C8.02205 2.62551 6.22272 0.826172 4.01103 0.826172C4.00175 0.826172 3.99257 0.826332 3.98335 0.826652H0.800061C0.358214 0.826652 0 1.18487 0 1.62671V14.3208C0 14.7626 0.358214 15.1208 0.800061 15.1208C1.24191 15.1208 1.60012 14.7626 1.60012 14.3208V8.84865H4.01103C4.0186 8.84865 4.02612 8.84855 4.03364 8.84833C5.35262 8.86055 6.42193 9.93727 6.42193 11.2591V14.3207C6.42193 14.7625 6.78015 15.1208 7.22199 15.1208C7.66384 15.1208 8.02205 14.7625 8.02205 14.3207V11.2591C8.02205 9.94714 7.38889 8.78038 6.41212 8.04817C7.38889 7.31595 8.02205 6.14914 8.02205 4.8372ZM4.01103 7.24816H1.60012V2.42677H4.01103C4.01903 2.42677 4.02703 2.42667 4.03498 2.42645C5.35342 2.43926 6.42193 3.51582 6.42193 4.83725C6.42193 6.16658 5.34041 7.24816 4.01103 7.24816Z" fill="#747474"/>
</g>
<defs>
<clipPath id="clip0_111_480">
<rect width="16" height="16" fill="white"/>
</clipPath>
</defs>
</svg>
