<svg width="16" height="16" viewBox="0 0 16 16" fill="none" xmlns="http://www.w3.org/2000/svg">
<path d="M8.29443 0C8.4399 0 8.57936 0.0579349 8.68188 0.160957L15.361 6.87285C15.8082 7.34184 16.0305 7.87161 15.9966 8.43932C15.965 8.97066 15.7537 9.45871 15.3509 9.91608L9.69212 15.5452L9.60007 15.6189C9.08936 15.9437 8.59274 16.0705 8.12068 15.962C7.70829 15.8672 7.27649 15.6126 6.77806 15.1793L0.249692 8.6041C0.150049 8.50374 0.0933308 8.36868 0.0914924 8.22739L0 1.17866C0.00538586 0.83547 0.101098 0.544677 0.313998 0.330548C0.532828 0.110454 0.843674 0.0178945 1.27059 0H8.29443ZM5.17879 3.6595C4.47501 3.6595 3.90448 4.22904 3.90448 4.93159C3.90448 5.63415 4.47501 6.20369 5.17879 6.20369C5.88257 6.20369 6.4531 5.63415 6.4531 4.93159C6.4531 4.22904 5.88257 3.6595 5.17879 3.6595Z" fill="white"/>
</svg>
