<svg width="103" height="106" viewBox="0 0 103 106" fill="none" xmlns="http://www.w3.org/2000/svg">
<path d="M52.5009 36.5594C51.2095 33.4059 50.5624 29.9927 50.5624 26.3198C50.5624 22.6469 51.2148 19.239 52.5194 16.0961C53.8241 12.9532 55.6094 10.3005 57.8781 8.13019C60.1467 5.95984 62.8406 4.26119 65.9596 3.02629C69.0787 1.79139 72.4169 1.17924 75.977 1.17924C79.4095 1.15541 82.8155 1.783 86.0156 3.02894C89.1452 4.26119 91.839 5.96249 94.0971 8.13284C96.3552 10.3032 98.1405 12.9558 99.4557 16.0987C100.771 19.2416 101.429 22.6469 101.429 26.3224C101.429 29.998 100.771 33.4059 99.4557 36.5461C98.1405 39.6864 96.3525 42.3417 94.0971 44.512C91.8417 46.6824 89.1452 48.381 86.0156 49.6159C82.8155 50.8619 79.4095 51.4895 75.977 51.4656C72.5505 51.4903 69.1504 50.8627 65.957 49.6159C62.8379 48.3837 60.1441 46.6824 57.8754 44.512C55.6068 42.3417 53.8135 39.6943 52.5009 36.5647V36.5594ZM0 79.7226C0 75.9304 0.668179 72.4377 2.00718 69.2498C3.34618 66.0618 5.17113 63.4065 7.48467 61.2839C9.79821 59.1612 12.5105 57.5156 15.6164 56.3416C18.7222 55.1677 22.0367 54.582 25.5519 54.582C27.6104 54.5702 29.6623 54.815 31.6606 55.3108C33.578 55.7957 35.2603 56.4423 36.7129 57.2479C38.1575 58.0491 39.5047 59.0158 40.7273 60.1285C41.9527 61.2415 42.9827 62.3863 43.8225 63.5602C44.6592 64.7296 45.3876 65.9732 45.9987 67.2755L34.1247 73.6037C33.3606 71.9253 32.1981 70.4604 30.7389 69.3372C29.2309 68.1527 27.501 67.5591 25.5493 67.5591C22.2163 67.5591 19.504 68.7277 17.4176 71.0624C15.3312 73.397 14.2879 76.2829 14.2879 79.7199C14.2879 83.157 15.3312 86.0428 17.4176 88.3775C19.504 90.7121 22.2163 91.8808 25.5493 91.8808C27.2423 91.8983 28.9155 91.5142 30.4325 90.7598C31.9194 90.0126 33.1264 89.0479 34.056 87.8634H24.1918V75.0612H49.5404C49.5404 84.5906 47.277 91.9391 42.7529 97.1066C38.2288 102.274 32.0409 104.86 24.1918 104.86C21.0173 104.86 17.9722 104.267 15.0565 103.082C12.1936 101.931 9.57283 100.248 7.33149 98.1216C5.09718 95.9989 3.31713 93.3436 1.98869 90.1556C0.660256 86.9677 0 83.4909 0 79.7226ZM52.5009 89.9622C51.2095 86.8087 50.5624 83.3955 50.5624 79.7226C50.5624 76.0497 51.2148 72.6418 52.5194 69.4989C53.8241 66.356 55.6094 63.7033 57.8781 61.533C60.1467 59.3626 62.8406 57.664 65.9596 56.4291C69.153 55.1824 72.5531 54.5547 75.9797 54.5794C79.4121 54.5556 82.8181 55.1832 86.0182 56.4291C89.1478 57.6613 91.8417 59.3626 94.0998 61.533C96.3578 63.7033 98.1432 66.356 99.4584 69.4989C100.774 72.6418 101.431 76.047 101.431 79.7226C101.431 83.3981 100.774 86.8034 99.4584 89.9463C98.1432 93.0892 96.3552 95.7419 94.0998 97.9122C91.8443 100.083 89.1478 101.781 86.0182 103.013C82.8181 104.259 79.4121 104.887 75.9797 104.863C72.5531 104.888 69.153 104.26 65.9596 103.013C62.8406 101.781 60.1467 100.08 57.8781 97.9122C55.6094 95.7445 53.8162 93.0945 52.5036 89.9649L52.5009 89.9622ZM68.0407 18.9687C66.1603 21.086 65.2228 23.7228 65.2228 26.8789C65.2228 30.0351 66.1683 32.6718 68.0566 34.7892C69.9449 36.9065 72.4143 37.9665 75.462 37.9665C78.5098 37.9665 80.9844 36.9065 82.8833 34.7892C84.7822 32.6718 85.733 30.0351 85.733 26.8789C85.733 23.7228 84.7822 21.086 82.8833 18.9687C80.9844 16.8513 78.5098 15.7913 75.462 15.7913C72.4143 15.7913 69.9396 16.8513 68.0407 18.9687ZM68.0407 72.3715C66.1603 74.4888 65.2228 77.1256 65.2228 80.2817C65.2228 83.4379 66.1683 86.0746 68.0566 88.192C69.9449 90.3093 72.4143 91.3693 75.462 91.3693C78.5098 91.3693 80.9844 90.3093 82.8833 88.192C84.7822 86.0746 85.733 83.4379 85.733 80.2817C85.733 77.1256 84.7822 74.4888 82.8833 72.3715C80.9844 70.2541 78.5098 69.1941 75.462 69.1941C72.4143 69.1941 69.9396 70.2515 68.0407 72.3715ZM18.3366 36.729H45.8614C46.0501 36.7332 46.2294 36.8122 46.3601 36.9488C46.4908 37.0854 46.5622 37.2684 46.5586 37.4577V51.0549C46.5622 51.2433 46.4915 51.4255 46.362 51.562C46.2324 51.6984 46.0544 51.7781 45.8667 51.7836L3.24318 52.0195C3.15074 52.0195 3.06095 52.0009 2.97644 51.9665C2.89192 51.932 2.81533 51.8764 2.74931 51.8101C2.68328 51.7439 2.6331 51.6617 2.59613 51.5743C2.55915 51.4868 2.54331 51.3914 2.54067 51.296V3.71794C2.53854 3.59188 2.58624 3.4701 2.67335 3.37923C2.76045 3.28835 2.87986 3.23578 3.00549 3.23299H17.8718C17.9974 3.23578 18.1169 3.28835 18.204 3.37923C18.2911 3.4701 18.3388 3.59188 18.3366 3.71794V36.7316V36.729Z" fill="white"/>
</svg>
