<svg width="358" height="358" viewBox="0 0 358 358" fill="none" xmlns="http://www.w3.org/2000/svg">
<path d="M328.816 98.4643C327.09 85.0322 323.718 72.1513 316.665 60.4161C303.548 38.6067 279.985 25.4395 256.056 18.7592C236.001 13.1601 214.413 11.5419 194.415 17.3272C172.463 23.6781 154.04 38.2988 134.271 49.762C119.858 58.1177 104.643 65.0414 89.0919 70.9986C76.5046 75.8172 60.5092 78.5165 50.1629 87.6742C43.8192 93.2876 38.2344 99.7746 33.4444 106.756C14.141 134.894 7.84735 170.852 10.8259 204.418C12.9023 227.81 19.3392 251.466 33.7666 269.996C54.0079 295.987 88.7554 308.796 121.541 305.567C158.752 301.901 194.036 279.655 231.039 284.997C249.462 287.653 267.089 297.118 285.62 295.357C303.885 293.624 319.515 281.066 330.534 266.395C339.37 254.631 345.248 240.404 345.792 225.597C346.379 209.559 339.126 194.945 335.482 179.63C329.117 152.866 332.288 125.493 328.816 98.4643Z" fill="#2F80ED"/>
<path opacity="0.7" d="M328.816 98.4643C327.09 85.0322 323.718 72.1513 316.665 60.4161C303.548 38.6067 279.985 25.4395 256.056 18.7592C236.001 13.1601 214.413 11.5419 194.415 17.3272C172.463 23.6781 154.04 38.2988 134.271 49.762C119.858 58.1177 104.643 65.0414 89.0919 70.9986C76.5046 75.8172 60.5092 78.5165 50.1629 87.6742C43.8192 93.2876 38.2344 99.7746 33.4444 106.756C14.141 134.894 7.84735 170.852 10.8259 204.418C12.9023 227.81 19.3392 251.466 33.7666 269.996C54.0079 295.987 88.7554 308.796 121.541 305.567C158.752 301.901 194.036 279.655 231.039 284.997C249.462 287.653 267.089 297.118 285.62 295.357C303.885 293.624 319.515 281.066 330.534 266.395C339.37 254.631 345.248 240.404 345.792 225.597C346.379 209.559 339.126 194.945 335.482 179.63C329.117 152.866 332.288 125.493 328.816 98.4643Z" fill="white"/>
<path d="M239.812 225.715H344.305V221.777H239.812V225.715Z" stroke="#263238" stroke-miterlimit="10" stroke-linecap="round" stroke-linejoin="round"/>
<path d="M244.659 332.224H339.457V225.827H244.659V332.224Z" stroke="#263238" stroke-miterlimit="10" stroke-linecap="round" stroke-linejoin="round"/>
<path d="M248.07 253.865H336.159V230.782H248.07V253.865Z" stroke="#263238" stroke-miterlimit="10" stroke-linecap="round" stroke-linejoin="round"/>
<path d="M287.861 244.443H296.668V240.19H287.861V244.443Z" fill="#263238" stroke="#263238" stroke-miterlimit="10" stroke-linecap="round" stroke-linejoin="round"/>
<path d="M248.07 283.025H336.159V259.941H248.07V283.025Z" stroke="#263238" stroke-miterlimit="10" stroke-linecap="round" stroke-linejoin="round"/>
<path d="M287.861 273.609H296.668V269.356H287.861V273.609Z" fill="#263238" stroke="#263238" stroke-miterlimit="10" stroke-linecap="round" stroke-linejoin="round"/>
<path d="M248.07 312.318H336.159V289.234H248.07V312.318Z" stroke="#263238" stroke-miterlimit="10" stroke-linecap="round" stroke-linejoin="round"/>
<path d="M287.861 302.903H296.668V298.65H287.861V302.903Z" fill="#263238" stroke="#263238" stroke-miterlimit="10" stroke-linecap="round" stroke-linejoin="round"/>
<path d="M296.395 175.227C297.462 175.692 300.076 175.635 300.076 175.635C300.104 175.635 299.517 173.924 299.467 173.823C298.894 172.628 297.083 170.644 295.608 170.845C294.548 170.988 293.954 172.055 294.197 173.05C294.441 174.067 295.486 174.826 296.395 175.227Z" fill="#263238"/>
<path d="M322.823 175.799C322.844 175.814 323.295 174.067 323.317 173.952C323.503 172.635 323.081 169.986 321.742 169.334C320.775 168.869 319.694 169.427 319.343 170.394C318.985 171.382 319.436 172.592 319.98 173.43C320.61 174.403 322.816 175.799 322.823 175.799Z" fill="#263238"/>
<path d="M330.62 166.334C329.138 166.176 327.384 168.203 326.84 169.42C326.79 169.527 326.253 171.253 326.281 171.253H326.31C326.031 171.568 325.73 171.912 325.415 172.298C324.835 173.007 324.191 173.816 323.546 174.747C322.902 175.671 322.222 176.695 321.606 177.84C320.99 178.986 320.396 180.217 319.945 181.57C319.937 181.585 319.937 181.599 319.93 181.621C319.937 181.184 319.916 179.967 319.909 179.874C319.737 178.556 318.634 176.107 317.167 175.835C316.114 175.642 315.219 176.465 315.133 177.489C315.047 178.535 315.806 179.587 316.544 180.246C317.381 180.991 319.694 181.714 319.88 181.771C319.465 183.06 319.15 184.42 318.899 185.816C318.756 186.611 318.642 187.42 318.527 188.229C318.52 187.85 318.513 187.513 318.505 187.47C318.334 186.153 317.231 183.704 315.763 183.432C314.711 183.239 313.816 184.062 313.73 185.086C313.644 186.131 314.403 187.184 315.14 187.843C315.892 188.516 317.854 189.167 318.377 189.339C318.341 189.647 318.298 189.962 318.262 190.27C318.083 191.766 317.911 193.256 317.696 194.709C317.625 195.225 317.532 195.726 317.439 196.227C317.431 195.89 317.424 195.611 317.417 195.568C317.245 194.251 316.143 191.802 314.675 191.53C313.622 191.337 312.727 192.16 312.641 193.184C312.556 194.229 313.314 195.282 314.052 195.941C314.768 196.578 316.572 197.201 317.195 197.401C317.088 197.917 316.98 198.425 316.852 198.919C316.758 199.256 316.687 199.585 316.572 199.914C316.465 200.244 316.357 200.573 316.257 200.895C316.035 201.511 315.806 202.148 315.57 202.743C315.412 203.158 315.255 203.552 315.09 203.945C315.169 203.437 315.305 202.435 315.312 202.349C315.334 201.468 315.019 200.029 314.396 199.019C314.403 198.891 314.388 198.762 314.374 198.633C314.209 197.616 313.257 196.864 312.219 197.136C310.78 197.516 309.871 200.043 309.799 201.368C309.792 201.447 309.849 202.299 309.885 202.836C309.813 202.521 309.749 202.22 309.67 201.898C309.52 201.26 309.348 200.63 309.169 199.95C309.069 199.628 308.968 199.299 308.868 198.969C308.775 198.64 308.639 198.303 308.517 197.96C308.231 197.179 307.909 196.406 307.558 195.633C308.116 195.497 310.085 194.995 310.873 194.387C311.661 193.785 312.498 192.797 312.491 191.745C312.484 190.714 311.653 189.826 310.587 189.941C309.104 190.098 307.823 192.461 307.558 193.757C307.543 193.836 307.45 194.795 307.415 195.318C307.2 194.852 306.992 194.394 306.763 193.929C306.104 192.597 305.388 191.272 304.687 189.941C304.472 189.532 304.264 189.124 304.049 188.716C304.25 188.673 306.606 188.122 307.486 187.442C308.274 186.84 309.112 185.852 309.104 184.8C309.097 183.769 308.267 182.881 307.2 182.995C305.718 183.153 304.436 185.516 304.164 186.812C304.143 186.912 304.021 188.287 304.006 188.637C303.541 187.742 303.083 186.84 302.668 185.938C302.095 184.692 301.601 183.439 301.214 182.186C301.307 182.165 303.77 181.606 304.672 180.912C305.46 180.31 306.298 179.322 306.291 178.27C306.283 177.239 305.453 176.351 304.386 176.465C302.904 176.623 301.622 178.986 301.35 180.282C301.336 180.368 301.236 181.413 301.2 181.914C301.15 181.921 301.164 181.921 301.114 181.921C300.713 180.575 300.498 179.222 300.355 177.948C300.269 177.21 300.233 176.494 300.212 175.807C300.677 175.749 302.818 175.463 303.706 174.926C304.558 174.41 305.496 173.523 305.603 172.477C305.711 171.453 304.98 170.48 303.913 170.472C302.424 170.472 300.892 172.671 300.477 173.938C300.455 174.01 300.305 174.733 300.205 175.263C300.197 174.947 300.19 174.625 300.19 174.325C300.19 173.2 300.262 172.169 300.333 171.253C300.376 170.737 300.426 170.265 300.477 169.828C300.906 169.535 302.632 168.317 303.162 167.451C303.677 166.606 304.1 165.382 303.713 164.401C303.333 163.441 302.238 162.912 301.286 163.406C299.961 164.086 299.617 166.749 299.832 168.06C299.854 168.174 300.348 169.914 300.376 169.893C300.376 169.893 300.398 169.878 300.405 169.878C300.348 170.301 300.29 170.752 300.233 171.246C300.14 172.155 300.047 173.193 300.026 174.317C299.997 175.449 299.997 176.673 300.111 177.969C300.226 179.265 300.412 180.625 300.784 181.993C300.792 182.007 300.799 182.022 300.799 182.043C300.562 181.678 299.875 180.668 299.811 180.597C298.944 179.594 296.667 178.162 295.3 178.742C294.312 179.165 294.025 180.346 294.519 181.248C295.028 182.172 296.238 182.623 297.219 182.766C298.329 182.931 300.656 182.251 300.842 182.193C301.207 183.497 301.694 184.807 302.252 186.103C302.574 186.847 302.918 187.585 303.276 188.315C303.061 188 302.868 187.728 302.839 187.692C301.973 186.69 299.696 185.258 298.329 185.838C297.341 186.26 297.054 187.442 297.548 188.337C298.057 189.26 299.267 189.711 300.247 189.855C301.243 189.998 303.24 189.461 303.77 189.318C303.913 189.597 304.049 189.883 304.185 190.162C304.859 191.509 305.539 192.847 306.169 194.179C306.391 194.652 306.591 195.117 306.792 195.59C306.606 195.311 306.441 195.081 306.412 195.053C305.546 194.05 303.269 192.618 301.901 193.198C300.913 193.621 300.627 194.802 301.121 195.704C301.629 196.628 302.839 197.079 303.82 197.222C304.773 197.358 306.62 196.886 307.25 196.707C307.443 197.194 307.637 197.68 307.801 198.167C307.909 198.497 308.03 198.812 308.116 199.148C308.209 199.485 308.302 199.814 308.396 200.136C308.546 200.774 308.711 201.425 308.839 202.055C308.933 202.485 309.018 202.9 309.104 203.323C308.89 202.85 308.453 201.941 308.403 201.869C307.694 200.745 305.668 198.984 304.228 199.356C303.19 199.621 302.725 200.745 303.076 201.712C303.434 202.7 304.565 203.33 305.517 203.623C306.563 203.945 308.875 203.652 309.169 203.609C309.305 204.303 309.434 204.977 309.548 205.614C309.792 207.01 309.978 208.263 310.121 209.33H304.257V221.666H319.673V209.33H313.708C314.095 208.471 314.517 207.497 314.961 206.416C315.233 205.757 315.513 205.041 315.792 204.303C316.071 204.361 318.362 204.826 319.429 204.59C320.396 204.368 321.57 203.824 322.007 202.864C322.429 201.926 322.05 200.774 321.033 200.43C319.622 199.957 317.467 201.561 316.68 202.628C316.63 202.692 316.207 203.43 315.942 203.903C316.057 203.602 316.164 203.308 316.279 203C316.501 202.385 316.708 201.769 316.937 201.103C317.038 200.781 317.131 200.451 317.231 200.115C317.338 199.786 317.403 199.428 317.496 199.084C317.689 198.275 317.84 197.451 317.983 196.614C318.52 196.807 320.439 197.48 321.434 197.408C322.422 197.337 323.668 196.972 324.241 196.091C324.799 195.232 324.599 194.029 323.646 193.535C322.322 192.855 319.952 194.108 319.007 195.046C318.949 195.103 318.348 195.855 318.026 196.27C318.105 195.769 318.183 195.268 318.248 194.752C318.434 193.277 318.57 191.773 318.713 190.284C318.756 189.826 318.806 189.368 318.856 188.917C319.05 188.988 321.312 189.833 322.429 189.754C323.417 189.683 324.663 189.318 325.236 188.444C325.794 187.585 325.594 186.382 324.642 185.888C323.317 185.208 320.947 186.461 320.002 187.399C319.93 187.47 319.071 188.551 318.863 188.831C318.971 187.828 319.085 186.826 319.236 185.845C319.443 184.492 319.73 183.174 320.095 181.914C320.181 181.95 322.544 182.838 323.682 182.759C324.67 182.687 325.916 182.322 326.489 181.442C327.047 180.582 326.847 179.38 325.895 178.885C324.57 178.205 322.2 179.458 321.255 180.396C321.19 180.461 320.539 181.277 320.231 181.678C320.188 181.656 320.195 181.664 320.152 181.642C320.56 180.303 321.126 179.05 321.713 177.912C322.05 177.246 322.415 176.637 322.78 176.043C323.202 176.251 325.143 177.196 326.181 177.239C327.176 177.282 328.451 177.053 329.117 176.243C329.768 175.449 329.704 174.231 328.809 173.637C327.57 172.814 325.071 173.802 324.033 174.632C323.976 174.675 323.453 175.198 323.074 175.585C323.245 175.32 323.41 175.048 323.575 174.797C324.198 173.859 324.828 173.036 325.386 172.32C325.708 171.912 326.009 171.546 326.296 171.21C326.818 171.203 328.923 171.138 329.847 170.702C330.742 170.279 331.773 169.492 331.988 168.468C332.303 167.494 331.687 166.449 330.62 166.334ZM314.231 206.093C313.694 207.325 313.186 208.42 312.735 209.351H311.174C311.002 208.249 310.78 206.946 310.493 205.478C310.357 204.776 310.193 204.024 310.021 203.258C310.193 203.187 311.181 202.793 312.054 202.299C312.813 203.122 314.768 204.089 315.019 204.21C314.761 204.862 314.496 205.499 314.231 206.093Z" fill="#263238"/>
<path d="M20.3845 226.943L28.6901 306.513" stroke="#263238" stroke-width="2" stroke-miterlimit="10"/>
<path d="M27.3512 291.283L23.5851 287.309" stroke="#263238" stroke-width="2" stroke-miterlimit="10"/>
<path d="M24.7307 288.498C24.7307 288.498 24.8381 286.737 23.2342 285.305C22.2676 284.438 17.184 282.305 16.6971 284.095C16.1745 286.042 21.3798 289.866 24.7307 288.498Z" fill="#2F80ED" stroke="#263238" stroke-miterlimit="10"/>
<path d="M24.7307 288.498L19.8905 285.484" stroke="#263238" stroke-width="0.5" stroke-miterlimit="10"/>
<path d="M28.2963 300.333L24.5302 296.36" stroke="#263238" stroke-width="2" stroke-miterlimit="10"/>
<path d="M25.6758 297.548C25.6758 297.548 25.7832 295.787 24.1793 294.355C23.2127 293.488 18.1291 291.355 17.6422 293.145C17.1196 295.092 22.3249 298.916 25.6758 297.548Z" fill="#2F80ED" stroke="#263238" stroke-miterlimit="10"/>
<path d="M25.6758 297.548L20.8356 294.534" stroke="#263238" stroke-width="0.5" stroke-miterlimit="10"/>
<path d="M25.0457 269.202L21.2795 265.228" stroke="#263238" stroke-width="2" stroke-miterlimit="10"/>
<path d="M22.4251 266.417C22.4251 266.417 22.5325 264.655 20.9287 263.223C19.9621 262.357 14.8785 260.223 14.3916 262.013C13.8689 263.961 19.0742 267.784 22.4251 266.417Z" fill="#2F80ED" stroke="#263238" stroke-miterlimit="10"/>
<path d="M22.4251 266.417L17.585 263.402" stroke="#263238" stroke-width="0.5" stroke-miterlimit="10"/>
<path d="M25.9908 278.252L22.2246 274.278" stroke="#263238" stroke-width="2" stroke-miterlimit="10"/>
<path d="M23.3702 275.467C23.3702 275.467 23.4776 273.705 21.8738 272.273C20.9072 271.407 15.8236 269.273 15.3367 271.063C14.814 273.011 20.0194 276.834 23.3702 275.467Z" fill="#2F80ED" stroke="#263238" stroke-miterlimit="10"/>
<path d="M23.3703 275.467L18.5301 272.452" stroke="#263238" stroke-width="0.5" stroke-miterlimit="10"/>
<path d="M23.5134 254.502L19.7473 250.521" stroke="#263238" stroke-width="2" stroke-miterlimit="10"/>
<path d="M20.8929 251.717C20.8929 251.717 21.0003 249.956 19.3965 248.524C18.4299 247.657 13.3463 245.524 12.8594 247.314C12.3367 249.261 17.542 253.085 20.8929 251.717Z" fill="#2F80ED" stroke="#263238" stroke-miterlimit="10"/>
<path d="M20.8929 251.717L16.0527 248.703" stroke="#263238" stroke-width="0.5" stroke-miterlimit="10"/>
<path d="M21.974 239.738L18.2079 235.757" stroke="#263238" stroke-width="2" stroke-miterlimit="10"/>
<path d="M19.3535 236.953C19.3535 236.953 19.4609 235.192 17.857 233.76C16.8904 232.893 11.8068 230.76 11.32 232.55C10.7901 234.497 15.9954 238.321 19.3535 236.953Z" fill="#2F80ED" stroke="#263238" stroke-miterlimit="10"/>
<path d="M19.3535 236.953L14.5062 233.932" stroke="#263238" stroke-width="0.5" stroke-miterlimit="10"/>
<path d="M26.7211 285.928L29.578 281.259" stroke="#263238" stroke-width="2" stroke-miterlimit="10"/>
<path d="M28.7045 282.663C28.7045 282.663 28.2391 280.966 29.5135 279.226C30.2797 278.18 34.8119 275.037 35.6568 276.691C36.5733 278.495 32.2701 283.314 28.7045 282.663Z" fill="#2F80ED" stroke="#263238" stroke-miterlimit="10"/>
<path d="M28.7044 282.663L33.0649 278.495" stroke="#263238" stroke-width="0.5" stroke-miterlimit="10"/>
<path d="M24.2294 262.113L27.0934 257.445" stroke="#263238" stroke-width="2" stroke-miterlimit="10"/>
<path d="M26.2199 258.848C26.2199 258.848 25.7545 257.151 27.029 255.412C27.7951 254.366 32.3274 251.223 33.1723 252.877C34.0887 254.681 29.7856 259.5 26.2199 258.848Z" fill="#2F80ED" stroke="#263238" stroke-miterlimit="10"/>
<path d="M26.2199 258.848L30.5803 254.681" stroke="#263238" stroke-width="0.5" stroke-miterlimit="10"/>
<path d="M23.1411 251.653L26.0051 246.984" stroke="#263238" stroke-width="2" stroke-miterlimit="10"/>
<path d="M25.1316 248.388C25.1316 248.388 24.6662 246.691 25.9407 244.951C26.7068 243.906 31.2391 240.762 32.0839 242.416C32.9933 244.213 28.6901 249.032 25.1316 248.388Z" fill="#2F80ED" stroke="#263238" stroke-miterlimit="10"/>
<path d="M25.1316 248.388L29.492 244.221" stroke="#263238" stroke-width="0.5" stroke-miterlimit="10"/>
<path d="M21.5373 236.309L24.4013 231.64" stroke="#263238" stroke-width="2" stroke-miterlimit="10"/>
<path d="M23.5278 233.044C23.5278 233.044 23.0624 231.347 24.3368 229.607C25.103 228.562 29.6352 225.418 30.4801 227.072C31.3966 228.87 27.0934 233.688 23.5278 233.044Z" fill="#2F80ED" stroke="#263238" stroke-miterlimit="10"/>
<path d="M23.5278 233.044L27.8882 228.877" stroke="#263238" stroke-width="0.5" stroke-miterlimit="10"/>
<path d="M20.3129 226.499C20.3129 226.499 19.8475 224.803 21.122 223.063C21.8881 222.017 26.4204 218.874 27.2653 220.528C28.1818 222.325 23.8786 227.144 20.3129 226.499Z" fill="#2F80ED" stroke="#263238" stroke-miterlimit="10"/>
<path d="M20.3129 226.5L24.6734 222.332" stroke="#263238" stroke-width="0.5" stroke-miterlimit="10"/>
<path d="M20.5707 226.679C20.5707 226.679 18.8308 226.965 17.2413 225.519C16.2818 224.645 13.6326 219.805 15.3654 219.146C17.2413 218.416 21.5874 223.206 20.5707 226.679Z" fill="#2F80ED" stroke="#263238" stroke-miterlimit="10"/>
<path d="M20.5707 226.679L16.8833 221.903" stroke="#263238" stroke-width="0.5" stroke-miterlimit="10"/>
<path d="M42.287 237.898L34.0315 317.474" stroke="#263238" stroke-width="2" stroke-miterlimit="10"/>
<path d="M35.8573 302.295L32.9933 297.634" stroke="#263238" stroke-width="2" stroke-miterlimit="10"/>
<path d="M33.8668 299.03C33.8668 299.03 34.3322 297.333 33.0577 295.593C32.2916 294.548 27.7522 291.412 26.9145 293.066C25.998 294.87 30.3011 299.682 33.8668 299.03Z" fill="#2F80ED" stroke="#263238" stroke-miterlimit="10"/>
<path d="M33.8668 299.03L29.7498 295.085" stroke="#263238" stroke-width="0.5" stroke-miterlimit="10"/>
<path d="M38.1485 280.214L35.2845 275.545" stroke="#263238" stroke-width="2" stroke-miterlimit="10"/>
<path d="M36.158 276.949C36.158 276.949 36.6234 275.252 35.3489 273.512C34.5828 272.467 30.0434 269.331 29.2057 270.984C28.2892 272.782 32.5923 277.6 36.158 276.949Z" fill="#2F80ED" stroke="#263238" stroke-miterlimit="10"/>
<path d="M36.158 276.949L32.041 272.996" stroke="#263238" stroke-width="0.5" stroke-miterlimit="10"/>
<path d="M37.2105 289.264L34.3465 284.596" stroke="#263238" stroke-width="2" stroke-miterlimit="10"/>
<path d="M35.2201 285.999C35.2201 285.999 35.6855 284.302 34.411 282.562C33.6449 281.517 29.1054 278.381 28.2677 280.035C27.3512 281.832 31.6544 286.651 35.2201 285.999Z" fill="#2F80ED" stroke="#263238" stroke-miterlimit="10"/>
<path d="M35.2201 285.999L31.1031 282.047" stroke="#263238" stroke-width="0.5" stroke-miterlimit="10"/>
<path d="M39.6736 265.514L36.8096 260.846" stroke="#263238" stroke-width="2" stroke-miterlimit="10"/>
<path d="M37.6831 262.249C37.6831 262.249 38.1485 260.552 36.874 258.813C36.1079 257.767 31.5685 254.631 30.7307 256.285C29.8143 258.082 34.1174 262.901 37.6831 262.249Z" fill="#2F80ED" stroke="#263238" stroke-miterlimit="10"/>
<path d="M37.6831 262.249L33.5661 258.297" stroke="#263238" stroke-width="0.5" stroke-miterlimit="10"/>
<path d="M41.2058 250.75L38.3418 246.082" stroke="#263238" stroke-width="2" stroke-miterlimit="10"/>
<path d="M39.2153 247.485C39.2153 247.485 39.6807 245.788 38.4062 244.049C37.6401 243.003 33.1007 239.867 32.263 241.521C31.3465 243.318 35.6496 248.13 39.2153 247.485Z" fill="#2F80ED" stroke="#263238" stroke-miterlimit="10"/>
<path d="M39.2153 247.485L35.0983 243.533" stroke="#263238" stroke-width="0.5" stroke-miterlimit="10"/>
<path d="M36.337 296.925L40.1032 292.951" stroke="#263238" stroke-width="2" stroke-miterlimit="10"/>
<path d="M38.9576 294.14C38.9576 294.14 38.8502 292.379 40.454 290.947C41.4206 290.08 46.5042 287.939 46.9911 289.729C47.5138 291.677 42.3084 295.507 38.9576 294.14Z" fill="#2F80ED" stroke="#263238" stroke-miterlimit="10"/>
<path d="M38.9576 294.14L44.0841 290.961" stroke="#263238" stroke-width="0.5" stroke-miterlimit="10"/>
<path d="M38.8072 273.111L42.5734 269.137" stroke="#263238" stroke-width="2" stroke-miterlimit="10"/>
<path d="M41.4278 270.326C41.4278 270.326 41.3204 268.564 42.9242 267.132C43.8908 266.266 48.9744 264.125 49.4613 265.915C49.984 267.863 44.7858 271.693 41.4278 270.326Z" fill="#2F80ED" stroke="#263238" stroke-miterlimit="10"/>
<path d="M41.4278 270.326L46.5544 267.147" stroke="#263238" stroke-width="0.5" stroke-miterlimit="10"/>
<path d="M39.8955 262.643L43.6617 258.669" stroke="#263238" stroke-width="2" stroke-miterlimit="10"/>
<path d="M42.5161 259.858C42.5161 259.858 42.4087 258.097 44.0125 256.665C44.9791 255.798 50.0627 253.657 50.5496 255.447C51.0723 257.395 45.867 261.225 42.5161 259.858Z" fill="#2F80ED" stroke="#263238" stroke-miterlimit="10"/>
<path d="M42.5161 259.858L47.6427 256.679" stroke="#263238" stroke-width="0.5" stroke-miterlimit="10"/>
<path d="M41.4851 247.306L45.2512 243.325" stroke="#263238" stroke-width="2" stroke-miterlimit="10"/>
<path d="M44.1056 244.514C44.1056 244.514 43.9982 242.753 45.6021 241.321C46.5687 240.454 51.6523 238.313 52.1391 240.103C52.6618 242.058 47.4637 245.882 44.1056 244.514Z" fill="#2F80ED" stroke="#263238" stroke-miterlimit="10"/>
<path d="M44.1056 244.514L49.2322 241.335" stroke="#263238" stroke-width="0.5" stroke-miterlimit="10"/>
<path d="M42.3085 237.454C42.3085 237.454 42.2011 235.693 43.8049 234.261C44.7715 233.395 49.8551 231.254 50.342 233.044C50.8647 234.991 45.6665 238.822 42.3085 237.454Z" fill="#2F80ED" stroke="#263238" stroke-miterlimit="10"/>
<path d="M42.3085 237.454L47.435 234.275" stroke="#263238" stroke-width="0.5" stroke-miterlimit="10"/>
<path d="M42.5233 237.676C42.5233 237.676 40.7619 237.597 39.5017 235.85C38.7428 234.798 37.1461 229.521 38.9791 229.227C40.9695 228.912 44.2345 234.49 42.5233 237.676Z" fill="#2F80ED" stroke="#263238" stroke-miterlimit="10"/>
<path d="M42.5233 237.676L39.8955 232.249" stroke="#263238" stroke-width="0.5" stroke-miterlimit="10"/>
<path d="M32.8214 205.492V306.126" stroke="#263238" stroke-width="2" stroke-miterlimit="10"/>
<path d="M32.9074 290.997L29.5708 286.651" stroke="#263238" stroke-width="2" stroke-miterlimit="10"/>
<path d="M30.5875 287.954C30.5875 287.954 30.8739 286.214 29.4276 284.624C28.5541 283.665 23.7211 281.009 23.0552 282.741C22.332 284.624 27.1078 288.963 30.5875 287.954Z" fill="#2F80ED" stroke="#263238" stroke-miterlimit="10"/>
<path d="M30.5875 287.954L26.0839 284.453" stroke="#263238" stroke-width="0.5" stroke-miterlimit="10"/>
<path d="M32.9074 272.08L29.5708 267.741" stroke="#263238" stroke-width="2" stroke-miterlimit="10"/>
<path d="M30.5875 269.044C30.5875 269.044 30.8739 267.304 29.4276 265.715C28.5541 264.755 23.7211 262.099 23.0552 263.832C22.332 265.708 27.1078 270.054 30.5875 269.044Z" fill="#2F80ED" stroke="#263238" stroke-miterlimit="10"/>
<path d="M30.5875 269.044L26.0839 265.536" stroke="#263238" stroke-width="0.5" stroke-miterlimit="10"/>
<path d="M32.9074 249.884L29.5708 245.538" stroke="#263238" stroke-width="2" stroke-miterlimit="10"/>
<path d="M30.5875 246.841C30.5875 246.841 30.8739 245.101 29.4276 243.512C28.5541 242.552 23.7211 239.896 23.0552 241.629C22.332 243.504 27.1078 247.851 30.5875 246.841Z" fill="#2F80ED" stroke="#263238" stroke-miterlimit="10"/>
<path d="M30.5875 246.841L26.0839 243.333" stroke="#263238" stroke-width="0.5" stroke-miterlimit="10"/>
<path d="M32.9074 235.099L29.5708 230.753" stroke="#263238" stroke-width="2" stroke-miterlimit="10"/>
<path d="M30.5875 232.056C30.5875 232.056 30.8739 230.316 29.4276 228.726C28.5541 227.767 23.7211 225.11 23.0552 226.843C22.332 228.726 27.1078 233.072 30.5875 232.056Z" fill="#2F80ED" stroke="#263238" stroke-miterlimit="10"/>
<path d="M30.5875 232.056L26.0839 228.554" stroke="#263238" stroke-width="0.5" stroke-miterlimit="10"/>
<path d="M32.9074 220.256L29.5708 215.91" stroke="#263238" stroke-width="2" stroke-miterlimit="10"/>
<path d="M30.5875 217.213C30.5875 217.213 30.8739 215.473 29.4276 213.884C28.5541 212.924 23.7211 210.268 23.0552 212.001C22.332 213.884 27.1078 218.23 30.5875 217.213Z" fill="#2F80ED" stroke="#263238" stroke-miterlimit="10"/>
<path d="M30.5875 217.213L26.0839 213.712" stroke="#263238" stroke-width="0.5" stroke-miterlimit="10"/>
<path d="M32.8286 296.768L36.1652 292.422" stroke="#263238" stroke-width="2" stroke-miterlimit="10"/>
<path d="M35.1484 293.725C35.1484 293.725 34.862 291.985 36.3084 290.395C37.1819 289.436 42.0149 286.78 42.6808 288.512C43.4039 290.395 38.6282 294.741 35.1484 293.725Z" fill="#2F80ED" stroke="#263238" stroke-miterlimit="10"/>
<path d="M35.1485 293.725L39.917 290.037" stroke="#263238" stroke-width="0.5" stroke-miterlimit="10"/>
<path d="M32.8286 266.689L36.1652 262.35" stroke="#263238" stroke-width="2" stroke-miterlimit="10"/>
<path d="M35.1484 263.653C35.1484 263.653 34.862 261.913 36.3084 260.323C37.1819 259.364 42.0149 256.708 42.6808 258.44C43.4039 260.316 38.6282 264.662 35.1484 263.653Z" fill="#2F80ED" stroke="#263238" stroke-miterlimit="10"/>
<path d="M35.1485 263.653L39.917 259.958" stroke="#263238" stroke-width="0.5" stroke-miterlimit="10"/>
<path d="M32.8286 251.846L36.1652 247.5" stroke="#263238" stroke-width="2" stroke-miterlimit="10"/>
<path d="M35.1484 248.803C35.1484 248.803 34.862 247.063 36.3084 245.473C37.1819 244.514 42.0149 241.858 42.6808 243.59C43.4039 245.473 38.6282 249.82 35.1484 248.803Z" fill="#2F80ED" stroke="#263238" stroke-miterlimit="10"/>
<path d="M35.1485 248.803L39.917 245.115" stroke="#263238" stroke-width="0.5" stroke-miterlimit="10"/>
<path d="M32.8286 232.227L36.1652 227.881" stroke="#263238" stroke-width="2" stroke-miterlimit="10"/>
<path d="M35.1484 229.184C35.1484 229.184 34.862 227.445 36.3084 225.855C37.1819 224.896 42.0149 222.239 42.6808 223.972C43.4039 225.855 38.6282 230.201 35.1484 229.184Z" fill="#2F80ED" stroke="#263238" stroke-miterlimit="10"/>
<path d="M35.1485 229.184L39.917 225.49" stroke="#263238" stroke-width="0.5" stroke-miterlimit="10"/>
<path d="M32.8286 216.798L36.1651 212.452" stroke="#263238" stroke-width="2" stroke-miterlimit="10"/>
<path d="M35.1484 213.762C35.1484 213.762 34.862 212.022 36.3083 210.432C37.1819 209.473 42.0149 206.817 42.6807 208.549C43.4039 210.425 38.6282 214.771 35.1484 213.762Z" fill="#2F80ED" stroke="#263238" stroke-miterlimit="10"/>
<path d="M35.1484 213.762L39.917 210.067" stroke="#263238" stroke-width="0.5" stroke-miterlimit="10"/>
<path d="M32.6353 206.917C32.6353 206.917 32.3489 205.177 33.7952 203.587C34.6687 202.628 39.5017 199.972 40.1676 201.704C40.8907 203.587 36.1079 207.934 32.6353 206.917Z" fill="#2F80ED" stroke="#263238" stroke-miterlimit="10"/>
<path d="M32.6353 206.917L37.4038 203.222" stroke="#263238" stroke-width="0.5" stroke-miterlimit="10"/>
<path d="M32.8644 207.125C32.8644 207.125 31.103 207.232 29.671 205.621C28.8118 204.654 26.6781 199.564 28.4681 199.084C30.4157 198.561 34.2391 203.774 32.8644 207.125Z" fill="#2F80ED" stroke="#263238" stroke-miterlimit="10"/>
<path d="M32.8644 207.125L29.6925 201.991" stroke="#263238" stroke-width="0.5" stroke-miterlimit="10"/>
<path d="M36.9671 332.224H26.3059L24.9741 305.31H38.2989L36.9671 332.224Z" fill="#263238" stroke="#263238" stroke-miterlimit="10"/>
<path d="M82.3973 126.145H18.3726V24.2223H97.6409V126.145H86.5572" stroke="#263238" stroke-miterlimit="10"/>
<path d="M94.7698 27.9169H21.2509V122.45H94.7698V27.9169Z" stroke="#263238" stroke-miterlimit="10"/>
<path d="M35.979 53.8074C37.2105 54.9459 38.5924 56.0557 40.1461 57.1082C56.7788 68.3924 84.9892 63.0438 94.4905 79.0822" stroke="#263238" stroke-miterlimit="10"/>
<path d="M26.1841 28.3035C26.1841 28.3035 24.2509 40.9767 33.9026 51.7095" stroke="#263238" stroke-miterlimit="10"/>
<path d="M32.4849 80.3782C40.5972 76.0965 51.1009 73.0535 56.4781 81.7529C62.7144 91.8485 33.9098 109.67 33.9098 122.436" stroke="#263238" stroke-miterlimit="10"/>
<path d="M21.437 87.6957C21.437 87.6957 25.1388 84.6026 30.2438 81.624" stroke="#263238" stroke-miterlimit="10"/>
<path d="M59.743 28.3035C59.743 28.3035 70.4329 44.9361 94.7841 40.4755" stroke="#263238" stroke-miterlimit="10"/>
<path d="M62.9364 44.6355C62.9865 45.0221 63.008 45.4231 63.008 45.824C63.008 51.237 58.6189 55.6261 53.206 55.6261C47.793 55.6261 43.4039 51.237 43.4039 45.824C43.4039 40.4111 47.793 36.022 53.206 36.022C56.965 36.022 60.2299 38.1342 61.8696 41.2416" stroke="#263238" stroke-miterlimit="10"/>
<path d="M87.3592 59.0414C87.3592 61.5832 85.2971 63.6453 82.7553 63.6453C80.2135 63.6453 78.1514 61.5832 78.1514 59.0414C78.1514 56.4996 80.2135 54.4375 82.7553 54.4375C85.2971 54.4375 87.3592 56.4996 87.3592 59.0414Z" stroke="#263238" stroke-miterlimit="10"/>
<path d="M87.4164 90.0943C90.0442 90.7817 92.4571 92.0132 94.512 93.6743" stroke="#263238" stroke-miterlimit="10"/>
<path d="M69.7814 122.508C65.9866 119.035 63.6023 114.037 63.6023 108.488C63.6023 97.9918 72.1084 89.4857 82.6049 89.4857C82.9701 89.4857 83.3353 89.4929 83.7004 89.5144" stroke="#263238" stroke-miterlimit="10"/>
<path d="M230.552 332.224H344.396" stroke="#263238" stroke-miterlimit="10"/>
<path d="M11.456 332.224H224.824" stroke="#263238" stroke-miterlimit="10"/>
<path d="M283.199 30.43H138.689V298.135H283.199V30.43Z" fill="white"/>
<path d="M283.199 252.483H138.689V298.135H283.199V252.483Z" fill="#DEDEDE"/>
<path d="M287.538 83.099C288.527 83.099 289.321 82.297 289.321 81.3161V63.4662C289.321 62.4782 288.519 61.6834 287.538 61.6834C287.424 61.6834 287.309 61.6977 287.202 61.7192V28.325C287.202 21.9669 282.047 16.8188 275.696 16.8188H148.856C142.498 16.8188 137.35 21.974 137.35 28.325V297.749C137.35 304.107 142.505 309.255 148.856 309.255H275.696C282.054 309.255 287.202 304.1 287.202 297.749V133.842C287.309 133.863 287.424 133.878 287.538 133.878C288.527 133.878 289.321 133.076 289.321 132.095V114.245C289.321 113.257 288.519 112.462 287.538 112.462C287.424 112.462 287.309 112.476 287.202 112.498V108.467C287.309 108.488 287.424 108.503 287.538 108.503C288.527 108.503 289.321 107.701 289.321 106.72V88.8699C289.321 87.8818 288.519 87.0871 287.538 87.0871C287.424 87.0871 287.309 87.1014 287.202 87.1229V83.0918C287.309 83.0846 287.424 83.099 287.538 83.099ZM280.536 291.906H144.009V36.6735H280.536V291.906Z" fill="#263238"/>
<path d="M275.889 39.3228H264.569V45.5305H275.889V39.3228Z" stroke="#263238" stroke-width="0.8211" stroke-miterlimit="10" stroke-linecap="round" stroke-linejoin="round"/>
<path d="M273.397 39.3228H264.569V45.5305H273.397V39.3228Z" fill="#263238" stroke="#263238" stroke-width="0.7251" stroke-miterlimit="10" stroke-linecap="round" stroke-linejoin="round"/>
<path d="M277.464 41.0626H275.868V43.7977H277.464V41.0626Z" fill="#263238" stroke="#263238" stroke-width="0.7251" stroke-miterlimit="10" stroke-linecap="round" stroke-linejoin="round"/>
<path d="M149.157 41.2488H147.081V44.8073H149.157V41.2488Z" fill="#263238" stroke="#263238" stroke-width="0.8831" stroke-miterlimit="10" stroke-linecap="round" stroke-linejoin="round"/>
<path d="M152.422 40.0029H150.346V44.8073H152.422V40.0029Z" fill="#263238" stroke="#263238" stroke-width="0.8831" stroke-miterlimit="10" stroke-linecap="round" stroke-linejoin="round"/>
<path d="M155.68 38.5208H153.603V44.8073H155.68V38.5208Z" fill="#263238" stroke="#263238" stroke-width="0.8831" stroke-miterlimit="10" stroke-linecap="round" stroke-linejoin="round"/>
<path d="M277.314 48.9816H146.207V83.4355H277.314V48.9816Z" fill="#2F80ED"/>
<path d="M179.344 53.9434V79.2397" stroke="white" stroke-miterlimit="10"/>
<path d="M212.752 53.9434V79.2397" stroke="white" stroke-miterlimit="10"/>
<path d="M246.168 53.9434V79.2397" stroke="white" stroke-miterlimit="10"/>
<path opacity="0.15" d="M286.021 133.842C286.128 133.863 286.242 133.878 286.357 133.878C287.345 133.878 288.14 133.076 288.14 132.095V125.701L279.355 141.195V291.913H193.886L184.041 309.269H274.507C280.865 309.269 286.013 304.114 286.013 297.763V133.842H286.021Z" fill="white"/>
<path d="M206.731 202.22C206.731 199.478 206.731 196.743 206.731 194L206.724 194.007C208.084 194.007 209.444 194.007 210.812 194.007C210.812 192.611 210.812 191.265 210.812 189.89C209.437 189.89 208.077 189.89 206.724 189.89L206.731 189.898C206.724 188.523 206.724 187.155 206.716 185.781C209.444 185.781 212.179 185.781 214.943 185.781C214.943 184.392 214.943 183.045 214.943 181.699C216.318 181.699 217.664 181.699 219.039 181.699C219.039 183.067 219.039 184.413 219.039 185.766C220.428 185.766 221.774 185.766 223.149 185.766C223.149 183.017 223.149 180.296 223.149 177.575L223.141 177.582C223.313 177.582 223.485 177.575 223.664 177.575C227.595 177.575 231.533 177.568 235.464 177.568C235.464 178.928 235.464 180.289 235.464 181.656C236.853 181.656 238.199 181.656 239.538 181.656C239.538 180.289 239.538 178.936 239.538 177.582C238.156 177.582 236.803 177.582 235.449 177.582C235.449 176.222 235.449 174.854 235.449 173.458C232.693 173.458 229.972 173.458 227.23 173.458C227.23 170.709 227.23 168.002 227.23 165.289C223.12 165.289 219.032 165.289 214.915 165.289C214.915 166.663 214.915 168.009 214.915 169.384C212.165 169.384 209.459 169.384 206.745 169.384C206.745 172.126 206.745 174.84 206.745 177.597C208.12 177.597 209.466 177.597 210.805 177.597C210.805 178.979 210.805 180.317 210.805 181.692C209.437 181.692 208.091 181.692 206.724 181.692C206.724 183.088 206.724 184.442 206.724 185.795C205.37 185.795 204.017 185.795 202.621 185.795C202.621 184.42 202.621 183.067 202.621 181.685C198.497 181.685 194.415 181.685 190.313 181.685C190.313 180.31 190.313 178.971 190.313 177.59C194.401 177.59 198.482 177.59 202.599 177.59C202.599 166.628 202.599 155.709 202.599 144.739C203.996 144.739 205.356 144.739 206.724 144.739L206.716 144.732C206.716 148.685 206.724 152.637 206.724 156.589C206.724 156.725 206.724 156.868 206.724 157.026C208.091 157.026 209.437 157.026 210.826 157.026C210.826 154.305 210.826 151.592 210.826 148.856C212.201 148.856 213.54 148.856 214.922 148.856C214.922 151.57 214.922 154.284 214.922 157.055C216.318 157.055 217.685 157.055 219.046 157.055L219.039 157.047C219.039 158.401 219.039 159.754 219.039 161.15C225.891 161.15 232.707 161.15 239.559 161.15C239.559 162.525 239.559 163.871 239.559 165.246C240.934 165.246 242.28 165.246 243.669 165.246C243.669 166.649 243.669 168.009 243.669 169.37L243.676 169.363C242.316 169.363 240.955 169.363 239.588 169.363C239.588 170.759 239.588 172.105 239.588 173.48C240.963 173.48 242.323 173.48 243.676 173.48L243.669 173.473C243.669 176.193 243.669 178.914 243.669 181.692C245.058 181.692 246.419 181.692 247.786 181.692L247.779 181.685C247.779 184.406 247.779 187.127 247.779 189.883C246.419 189.883 245.072 189.883 243.705 189.883C243.705 192.633 243.705 195.346 243.705 198.117C245.065 198.117 246.426 198.117 247.793 198.117L247.786 198.11C247.786 199.463 247.786 200.817 247.786 202.213C250.528 202.213 253.249 202.213 255.984 202.213C255.984 203.588 255.984 204.934 255.984 206.308C251.903 206.308 247.822 206.308 243.698 206.308C243.698 209.065 243.698 211.779 243.698 214.514C242.323 214.514 240.977 214.514 239.602 214.514C239.602 213.175 239.602 211.822 239.602 210.425C236.831 210.425 234.103 210.425 231.368 210.425L231.375 210.432C231.375 209.079 231.375 207.726 231.375 206.33C230.001 206.33 228.647 206.33 227.28 206.33C227.28 204.948 227.28 203.609 227.28 202.234C229.994 202.234 232.707 202.234 235.449 202.234C235.449 200.845 235.449 199.499 235.449 198.132C228.626 198.132 221.817 198.132 214.965 198.132C214.965 199.478 214.965 200.824 214.965 202.213C212.194 202.213 209.466 202.213 206.731 202.213V202.22ZM231.347 189.905C231.347 188.544 231.347 187.184 231.347 185.816C229.965 185.816 228.612 185.816 227.273 185.816C227.273 187.184 227.273 188.537 227.273 189.898C228.655 189.898 230.008 189.898 231.361 189.898C231.361 191.258 231.361 192.618 231.361 193.986C234.111 193.986 236.831 193.986 239.538 193.986C239.538 192.618 239.538 191.265 239.538 189.912C236.788 189.905 234.068 189.905 231.347 189.905ZM223.127 189.926C221.752 189.926 220.406 189.926 219.067 189.926C219.067 191.301 219.067 192.647 219.067 193.986C220.435 193.986 221.774 193.986 223.127 193.986C223.127 192.633 223.127 191.294 223.127 189.926ZM231.368 169.356C232.743 169.356 234.089 169.356 235.428 169.356C235.428 167.981 235.428 166.635 235.428 165.296C234.06 165.296 232.722 165.296 231.368 165.296C231.368 166.649 231.368 167.988 231.368 169.356Z" fill="#263238"/>
<path d="M169.792 157.04C169.792 147.467 169.792 137.916 169.792 128.35C179.358 128.35 188.909 128.35 198.482 128.35C198.482 137.902 198.482 147.46 198.482 157.04C188.938 157.04 179.379 157.04 169.792 157.04ZM173.909 132.446C173.909 139.291 173.909 146.114 173.909 152.931C180.754 152.931 187.578 152.931 194.394 152.931C194.394 146.093 194.394 139.276 194.394 132.446C187.556 132.446 180.747 132.446 173.909 132.446Z" fill="#263238"/>
<path d="M255.956 157.047C246.383 157.047 236.831 157.047 227.266 157.047C227.266 147.482 227.266 137.93 227.266 128.357C236.817 128.357 246.376 128.357 255.956 128.357C255.956 137.902 255.956 147.46 255.956 157.047ZM251.86 132.46C245.008 132.46 238.192 132.46 231.375 132.46C231.375 139.305 231.375 146.128 231.375 152.945C238.213 152.945 245.03 152.945 251.86 152.945C251.86 146.107 251.86 139.291 251.86 132.46Z" fill="#263238"/>
<path d="M169.799 185.809C179.372 185.809 188.924 185.809 198.49 185.809C198.49 195.375 198.49 204.926 198.49 214.499C188.938 214.499 179.379 214.499 169.799 214.499C169.799 204.955 169.799 195.396 169.799 185.809ZM194.394 189.926C187.549 189.926 180.726 189.926 173.909 189.926C173.909 196.771 173.909 203.595 173.909 210.411C180.747 210.411 187.563 210.411 194.394 210.411C194.394 203.58 194.394 196.764 194.394 189.926Z" fill="#263238"/>
<path d="M206.723 144.754C206.723 142.033 206.723 139.305 206.723 136.548C205.349 136.548 204.003 136.548 202.635 136.548C202.635 133.799 202.635 131.092 202.635 128.357C209.451 128.357 216.275 128.357 223.12 128.357C223.12 131.071 223.12 133.785 223.12 136.527C221.774 136.527 220.428 136.527 219.06 136.527C219.06 137.902 219.06 139.248 219.06 140.637C220.406 140.637 221.759 140.637 223.12 140.637C223.12 143.386 223.12 146.093 223.12 148.828C221.774 148.828 220.421 148.828 219.039 148.828C219.039 147.482 219.039 146.128 219.039 144.754C217.657 144.754 216.318 144.754 214.943 144.754C214.943 143.379 214.943 142.033 214.943 140.658C213.561 140.658 212.222 140.658 210.848 140.658C210.848 141.997 210.848 143.35 210.848 144.739C209.444 144.739 208.084 144.739 206.716 144.739L206.723 144.754ZM210.84 136.513C212.215 136.513 213.561 136.513 214.9 136.513C214.9 135.138 214.9 133.792 214.9 132.453C213.533 132.453 212.194 132.453 210.84 132.453C210.84 133.806 210.84 135.145 210.84 136.513Z" fill="#263238"/>
<path d="M190.298 165.267C190.298 166.62 190.298 167.974 190.298 169.37C193.041 169.37 195.762 169.37 198.497 169.37C198.497 170.745 198.497 172.091 198.497 173.465C194.416 173.465 190.327 173.465 186.21 173.465C186.21 176.222 186.21 178.936 186.21 181.671C180.726 181.671 175.284 181.671 169.807 181.671C169.807 178.957 169.807 176.243 169.807 173.501C171.145 173.501 172.499 173.501 173.873 173.501C173.873 174.847 173.873 176.186 173.873 177.554C176.616 177.554 179.329 177.554 182.1 177.554C182.1 173.458 182.1 169.363 182.1 165.26L182.093 165.267C184.835 165.267 187.571 165.267 190.313 165.267H190.298Z" fill="#263238"/>
<path d="M206.716 202.213C206.716 203.566 206.716 204.919 206.716 206.315C208.091 206.315 209.437 206.315 210.812 206.315C210.812 207.697 210.812 209.036 210.812 210.411C212.187 210.411 213.533 210.411 214.907 210.411C214.907 211.8 214.907 213.146 214.907 214.514C210.819 214.514 206.745 214.514 202.642 214.514C202.642 210.432 202.642 206.351 202.642 202.22C204.003 202.22 205.363 202.22 206.724 202.22L206.716 202.213Z" fill="#263238"/>
<path d="M182.1 165.267C179.379 165.267 176.659 165.267 173.895 165.267C173.895 166.642 173.895 167.988 173.895 169.356C172.52 169.356 171.174 169.356 169.807 169.356C169.807 166.649 169.807 163.935 169.807 161.193C173.881 161.193 177.962 161.193 182.086 161.193C182.086 162.554 182.086 163.914 182.086 165.281L182.1 165.267Z" fill="#263238"/>
<path d="M255.956 173.465C254.588 173.465 253.249 173.465 251.882 173.465C251.882 170.737 251.882 168.031 251.882 165.282C250.507 165.282 249.161 165.282 247.786 165.282C247.786 163.892 247.786 162.546 247.786 161.179C250.507 161.179 253.213 161.179 255.949 161.179C255.956 165.267 255.956 169.356 255.956 173.465Z" fill="#263238"/>
<path d="M190.306 165.281C190.306 163.928 190.306 162.575 190.306 161.193C193.034 161.193 195.747 161.193 198.49 161.193C198.49 162.539 198.49 163.885 198.49 165.267C195.754 165.267 193.026 165.267 190.298 165.267C190.298 165.267 190.306 165.281 190.306 165.281Z" fill="#263238"/>
<path d="M247.779 181.699C247.779 180.346 247.779 178.993 247.779 177.611C249.139 177.611 250.485 177.611 251.86 177.611C251.86 178.957 251.86 180.303 251.86 181.685C250.493 181.685 249.132 181.685 247.772 181.685L247.779 181.699Z" fill="#263238"/>
<path d="M251.896 185.816C253.256 185.816 254.595 185.816 255.956 185.816C255.956 187.17 255.956 188.516 255.956 189.883C254.61 189.883 253.263 189.883 251.896 189.883C251.896 188.53 251.896 187.191 251.896 185.816Z" fill="#263238"/>
<path d="M219.039 157.069C219.039 155.716 219.039 154.363 219.039 152.981C220.399 152.981 221.745 152.981 223.12 152.981C223.12 154.327 223.12 155.673 223.12 157.055C221.752 157.055 220.392 157.055 219.032 157.055L219.039 157.069Z" fill="#263238"/>
<path d="M206.731 194C205.377 194 204.024 194 202.642 194C202.642 192.64 202.642 191.294 202.642 189.905C204.003 189.905 205.363 189.905 206.731 189.905L206.724 189.898C206.724 191.272 206.724 192.64 206.724 194.015L206.731 194Z" fill="#263238"/>
<path d="M247.779 198.117C247.779 196.764 247.779 195.411 247.779 194.029C249.139 194.029 250.485 194.029 251.86 194.029C251.86 195.375 251.86 196.721 251.86 198.103C250.5 198.103 249.132 198.103 247.772 198.103L247.779 198.117Z" fill="#263238"/>
<path d="M243.662 169.384C245.015 169.384 246.368 169.384 247.75 169.384C247.75 170.745 247.75 172.091 247.75 173.48C246.39 173.48 245.03 173.48 243.662 173.48L243.669 173.487C243.669 172.112 243.669 170.745 243.669 169.37L243.662 169.384Z" fill="#263238"/>
<path d="M223.12 210.411C221.752 210.411 220.413 210.411 219.06 210.411C219.06 209.058 219.06 207.719 219.06 206.351C220.399 206.351 221.752 206.351 223.12 206.351C223.12 207.69 223.12 209.036 223.12 210.411Z" fill="#263238"/>
<path d="M231.347 210.418C231.347 211.771 231.347 213.125 231.347 214.506C229.986 214.506 228.64 214.506 227.266 214.506C227.266 213.16 227.266 211.814 227.266 210.432C228.626 210.432 229.994 210.432 231.354 210.432L231.347 210.418Z" fill="#263238"/>
<path d="M255.956 214.521C254.595 214.521 253.249 214.521 251.896 214.521C251.896 213.168 251.896 211.829 251.896 210.461C253.235 210.461 254.581 210.461 255.956 210.461C255.956 211.793 255.956 213.139 255.956 214.521Z" fill="#263238"/>
<path d="M223.149 177.582C221.795 177.582 220.442 177.582 219.06 177.582C219.06 176.222 219.06 174.876 219.06 173.501C220.406 173.501 221.752 173.501 223.134 173.501C223.134 174.869 223.134 176.229 223.134 177.59C223.141 177.59 223.149 177.582 223.149 177.582Z" fill="#263238"/>
<path d="M190.277 148.835C186.174 148.835 182.1 148.835 178.005 148.835C178.005 144.739 178.005 140.665 178.005 136.563C182.086 136.563 186.167 136.563 190.277 136.563C190.277 140.644 190.277 144.725 190.277 148.835Z" fill="#263238"/>
<path d="M235.471 148.828C235.471 144.725 235.471 140.651 235.471 136.556C239.559 136.556 243.641 136.556 247.743 136.556C247.743 140.637 247.743 144.718 247.743 148.828C243.669 148.828 239.588 148.828 235.471 148.828Z" fill="#263238"/>
<path d="M178.005 206.301C178.005 202.199 178.005 198.124 178.005 194.029C182.093 194.029 186.174 194.029 190.277 194.029C190.277 198.11 190.277 202.191 190.277 206.301C186.196 206.301 182.115 206.301 178.005 206.301Z" fill="#263238"/>
<path d="M181.714 118.62H163.742V138.446" stroke="#2F80ED" stroke-width="2" stroke-miterlimit="10"/>
<path d="M247.07 118.62H265.035V138.446" stroke="#2F80ED" stroke-width="2" stroke-miterlimit="10"/>
<path d="M181.714 223.027H163.742V203.201" stroke="#2F80ED" stroke-width="2" stroke-miterlimit="10"/>
<path d="M247.07 223.027H265.035V203.201" stroke="#2F80ED" stroke-width="2" stroke-miterlimit="10"/>
<path d="M127.033 143.436H121.068C120.016 143.436 119.157 142.584 119.157 141.525V124.82C119.157 123.768 120.009 122.909 121.068 122.909H127.033C128.085 122.909 128.944 123.761 128.944 124.82V141.525C128.937 142.584 128.085 143.436 127.033 143.436Z" fill="#263238" stroke="#263238" stroke-miterlimit="10"/>
<path d="M128.071 124.727H120.016V141.625H128.071V124.727Z" fill="white" stroke="#263238" stroke-miterlimit="10"/>
<path d="M41.2846 223.514C44.5925 223.585 47.4995 222.289 49.3897 221.151C49.2322 225.719 49.1105 229.177 49.1105 229.177C49.1105 229.177 49.8981 230.552 50.2919 231.146C50.6857 231.733 54.0294 233.702 54.4232 235.478C54.817 237.247 56.5855 238.235 56.3922 240.791C56.1917 243.347 54.0294 240.597 54.4232 241.185C54.817 241.779 55.9984 243.741 55.9984 245.516C55.9984 247.292 52.2609 247.285 50.879 246.103C49.5043 244.922 44.972 242.165 44.5782 239.609L43.0459 233.896L41.2846 223.514Z" fill="white" stroke="#263238" stroke-miterlimit="10"/>
<path d="M49.4613 237.712L50.4136 242.008C50.4136 242.008 53.5139 244.392 53.7573 246.068" fill="white"/>
<path d="M49.4613 237.712L50.4136 242.008C50.4136 242.008 53.5139 244.392 53.7573 246.068" stroke="#263238" stroke-miterlimit="10"/>
<path d="M54.4303 241.192L53.0413 238.428" stroke="#263238" stroke-miterlimit="10"/>
<path d="M64.9341 328.479C64.9341 328.479 63.8171 337.694 64.6834 338.811C65.557 339.928 66.9245 341.303 68.915 341.553C70.9055 341.804 74.2707 340.68 74.2707 340.68C74.2707 340.68 77.6287 341.675 81.2445 341.303C84.8532 340.931 87.2231 339.563 87.4666 337.816C87.7172 336.076 84.6026 335.324 82.8627 333.456C81.1228 331.587 78.3447 328.279 78.3447 328.279L77.6359 325.859C77.6359 325.859 73.4043 327.978 70.6621 328.1C67.9198 328.222 66.0582 327.728 66.0582 327.728L64.9341 328.479Z" fill="white" stroke="#263238" stroke-miterlimit="10"/>
<path d="M87.4666 337.816C87.4952 337.601 87.4737 337.394 87.4093 337.207C86.5787 337.551 85.5262 337.959 84.2302 338.439C80.4927 339.806 78.6311 338.69 76.7624 338.69C74.8936 338.69 74.7719 340.68 69.5451 339.312C66.1298 338.417 64.841 337.258 64.3612 336.563C64.3684 337.666 64.4615 338.518 64.6906 338.811C65.5641 339.928 66.9317 341.303 68.9222 341.554C70.9126 341.804 74.2778 340.68 74.2778 340.68C74.2778 340.68 77.6359 341.675 81.2517 341.303C84.8532 340.931 87.216 339.563 87.4666 337.816Z" fill="white" stroke="#263238" stroke-miterlimit="10"/>
<path d="M58.2967 214.084C58.2967 214.084 53.2847 230.91 55.0747 242.724C56.8647 254.538 65.4567 276.734 65.4567 276.734C65.4567 276.734 64.3827 284.968 64.3827 287.832C64.3827 290.696 61.8767 296.066 63.6667 301.794C65.4567 307.522 65.4567 322.558 65.4567 323.632C65.4567 324.706 64.7407 330.434 64.7407 330.434C64.7407 330.434 66.1727 332.582 71.5427 332.582C76.9127 332.582 78.3447 328.286 78.3447 328.286C78.3447 328.286 83.7147 296.424 83.7147 291.412C83.7147 286.4 89.4427 267.784 91.5907 260.266C93.7387 252.748 96.3593 247.965 97.7913 245.459C99.2233 242.953 98.3927 212.652 98.3927 212.652L57.5807 209.072L58.2967 214.084Z" fill="#737373" stroke="#263238" stroke-miterlimit="10"/>
<path d="M86.4713 330.849C86.4713 330.849 91.827 332.969 94.4404 334.207C97.0538 335.446 98.8008 335.575 98.8008 337.565C98.8008 339.556 94.0681 341.546 91.2041 342.047C88.3401 342.549 83.7362 342.42 83.235 342.549C82.7338 342.67 73.3972 344.045 72.2802 341.675C71.1632 339.312 72.4019 331.214 72.4019 331.214C72.4019 331.214 78.8746 332.589 86.4713 330.849Z" fill="white" stroke="#263238" stroke-miterlimit="10"/>
<path d="M83.235 342.549C83.7362 342.427 88.3401 342.549 91.2041 342.047C94.0681 341.546 98.8009 339.556 98.8009 337.565C98.8009 337.272 98.7579 337.021 98.6863 336.799C97.7054 337.372 96.4237 338.052 94.9416 338.689C91.4547 340.186 86.8508 341.181 79.877 341.052C76.0965 340.988 73.4974 340.479 71.9007 340.028C71.9723 340.694 72.094 341.274 72.2874 341.675C73.3972 344.045 82.7338 342.678 83.235 342.549Z" fill="white" stroke="#263238" stroke-miterlimit="10"/>
<path d="M98.7507 215.516C98.7507 215.516 100.899 244.514 96.6027 266.352C92.3067 288.19 85.1467 317.904 84.7887 319.336C84.4307 320.768 87.2947 324.706 87.2947 324.706V330.434C87.2947 330.434 84.7887 332.94 79.0607 333.656C73.3327 334.372 71.5427 332.582 71.5427 332.582C71.5427 332.582 70.1107 322.916 70.1107 316.114C70.1107 309.312 71.5427 286.042 71.5427 286.042C71.5427 286.042 74.7647 262.414 74.4067 258.834C74.0487 255.254 72.9747 244.156 72.9747 244.156L67.2467 237.354" fill="#737373"/>
<path d="M98.7507 215.516C98.7507 215.516 100.899 244.514 96.6027 266.352C92.3067 288.19 85.1467 317.904 84.7887 319.336C84.4307 320.768 87.2947 324.706 87.2947 324.706V330.434C87.2947 330.434 84.7887 332.94 79.0607 333.656C73.3327 334.372 71.5427 332.582 71.5427 332.582C71.5427 332.582 70.1107 322.916 70.1107 316.114C70.1107 309.312 71.5427 286.042 71.5427 286.042C71.5427 286.042 74.7647 262.414 74.4067 258.834C74.0487 255.254 72.9747 244.156 72.9747 244.156L67.2467 237.354" stroke="#263238" stroke-miterlimit="10"/>
<path d="M38.5709 210.06L49.8336 208.084C49.7835 209.609 50.0985 199.972 50.0985 199.256C50.0985 197.68 53.8361 187.835 53.8361 187.835C53.8361 187.835 56.786 200.63 56.786 202.206C56.786 203.781 55.6046 215.788 57.1798 217.363C58.755 218.938 64.2682 222.089 76.476 221.695C88.6838 221.301 97.7412 220.32 100.104 217.958C102.467 215.595 99.7102 208.313 99.5169 207.325C99.3235 206.344 102.667 180.547 102.667 180.547C102.667 180.547 115.856 194.33 123.732 192.361C131.608 190.392 127.863 159.682 127.863 159.682L128.257 150.825C128.257 150.825 130.813 144.331 130.813 143.343C130.813 142.362 128.257 135.274 128.257 135.274C128.257 135.274 126.682 133.899 125.701 137.243C124.72 140.587 124.52 142.756 124.52 142.756C124.52 142.756 122.157 144.525 122.357 147.088C122.551 149.644 123.338 151.613 123.338 151.613L118.025 168.94C118.025 168.94 112.118 162.246 111.725 161.064C111.331 159.883 111.531 155.551 106.605 152.995C101.686 150.439 91.6409 150.238 91.6409 150.238L63.8815 150.432C63.8815 150.432 50.8861 151.613 47.9362 154.169C44.9863 156.725 35.9289 189.21 35.9289 194.136C35.9289 195.676 36.738 200.437 37.8549 206.344L38.5709 210.06Z" fill="white" stroke="#263238" stroke-miterlimit="10"/>
<path d="M128.264 135.274C128.264 135.274 127.677 140.193 128.071 141.181C128.465 142.162 128.859 144.525 128.465 146.494" stroke="#263238" stroke-miterlimit="10"/>
<path d="M123.732 192.368C131.608 190.399 127.863 159.689 127.863 159.689L127.949 157.699C125.708 156.088 123.517 156.067 121.835 156.489L118.018 168.94C118.018 168.94 112.111 162.246 111.717 161.064C111.324 159.883 111.524 155.551 106.598 152.995C101.679 150.439 91.6337 150.238 91.6337 150.238L63.8744 150.432C63.8744 150.432 50.879 151.613 47.929 154.169C44.9791 156.725 35.9217 189.21 35.9217 194.136C35.9217 197.058 38.8287 211.621 41.2846 223.514C44.5925 223.585 47.4994 222.289 49.3897 221.151C49.6832 212.638 50.0985 200.28 50.0985 199.248C50.0985 197.673 53.836 187.828 53.836 187.828C53.836 187.828 56.786 200.623 56.786 202.198C56.786 203.774 55.6046 215.781 57.1798 217.356C58.755 218.931 64.2682 222.082 76.476 221.688C88.6838 221.294 97.7412 220.313 100.104 217.95C102.467 215.588 99.7102 208.306 99.5168 207.318C99.3235 206.337 102.667 180.539 102.667 180.539C102.667 180.539 115.856 194.337 123.732 192.368Z" fill="#2F80ED" stroke="#263238" stroke-miterlimit="10"/>
<path d="M49.9768 176.995L53.8432 187.835L45.8813 174.224" stroke="#263238" stroke-miterlimit="10"/>
<path d="M47.793 170.888L49.1606 174.718" stroke="#263238" stroke-miterlimit="10"/>
<path d="M75.0583 177.768C76.7982 181.678 79.3614 186.575 82.3973 189.74" stroke="#263238" stroke-miterlimit="10"/>
<path d="M72.6167 171.604C72.6167 171.604 73.1537 173.215 74.1132 175.556" stroke="#263238" stroke-miterlimit="10"/>
<path d="M76.9127 184.728C76.9127 184.728 81.2087 193.32 83.3567 194.988" stroke="#263238" stroke-miterlimit="10"/>
<path d="M109.405 174.31L111.037 172.792" stroke="#263238" stroke-miterlimit="10"/>
<path d="M106.741 172.076L102.667 180.554L107.923 175.685" stroke="#263238" stroke-miterlimit="10"/>
<path d="M125.357 176.852C125.121 175.184 118.025 168.94 118.025 168.94C118.025 168.94 125.357 171.84 127.269 174.468" stroke="#263238" stroke-miterlimit="10"/>
<path d="M94.3974 124.441C94.3974 124.441 94.7912 129.36 95.3784 130.147C95.9655 130.935 96.3593 137.035 95.3784 138.811C94.3974 140.587 93.8032 142.749 93.216 143.336C92.6289 143.923 90.4594 143.923 89.6718 143.923C88.8842 143.923 80.0273 143.529 80.0273 143.529L80.2206 131.128C80.2206 131.135 82.3901 121.885 94.3974 124.441Z" fill="white" stroke="#263238" stroke-miterlimit="10"/>
<path d="M78.6526 110.665C78.6526 110.665 70.5833 113.221 68.8076 120.309C67.0391 127.398 72.7456 135.467 72.7456 135.467C72.7456 135.467 74.3208 141.174 75.6955 142.355C77.0703 143.536 82.5835 142.355 84.3591 141.961C86.1277 141.567 90.0657 130.935 90.0657 130.935C90.0657 130.935 90.0657 133.491 91.2471 133.491C92.4285 133.491 92.228 130.147 92.228 129.553C92.228 128.959 97.7412 124.827 97.7412 117.739C97.7412 110.651 91.6409 107.5 85.9272 107.894C80.2207 108.302 78.6526 110.665 78.6526 110.665Z" fill="#263238" stroke="#263238" stroke-miterlimit="10"/>
<path d="M95.3855 149.837C95.3855 149.837 94.2041 145.706 93.617 145.112C93.0299 144.525 89.2852 142.162 83.1849 141.768C77.0846 141.374 68.0272 141.575 67.2396 141.968C66.452 142.362 66.2586 145.706 66.2586 145.706C66.2586 145.706 63.7025 148.069 63.1082 149.444C62.5211 150.818 61.9268 151.413 67.44 155.938C72.9532 160.463 75.9032 162.238 81.6168 160.857C87.3234 159.482 95.5932 151.212 95.5932 151.212L95.3855 149.837Z" fill="#2F80ED" stroke="#263238" stroke-miterlimit="10"/>
<path d="M81.3018 152.63C86.7864 150.911 92.4285 147.482 92.4285 147.482" stroke="#263238" stroke-miterlimit="10"/>
<path d="M66.2443 146.494C66.2443 146.494 69.7885 153.582 76.0893 153.582C76.8841 153.582 77.7433 153.482 78.6311 153.317" stroke="#263238" stroke-miterlimit="10"/>
</svg>
